<?xml version="1.0" encoding="iso-8859-1"?>
<!-- Generator: Adobe Illustrator 18.0.0, SVG Export Plug-In . SVG Version: 6.00 Build 0)  -->
<!DOCTYPE svg PUBLIC "-//W3C//DTD SVG 1.1//EN" "http://www.w3.org/Graphics/SVG/1.1/DTD/svg11.dtd">
<svg version="1.1" id="Capa_1" xmlns="http://www.w3.org/2000/svg" xmlns:xlink="http://www.w3.org/1999/xlink" x="0px" y="0px"
	 viewBox="0 0 60.001 60.001" style="enable-background:new 0 0 60.001 60.001;" xml:space="preserve">
<g>
	<path d="M0.247,9.024c0.154,6.262,1.332,36.534,9.533,38.824V55h-2c-1.527,0-2.941,0.889-3.605,2.265
		c-0.288,0.598-0.25,1.288,0.103,1.848C4.626,59.668,5.226,60,5.881,60h9.796c0.656,0,1.256-0.332,1.604-0.888
		c0.352-0.56,0.39-1.25,0.103-1.848C16.721,55.889,15.306,55,13.779,55h-2v-7.152c8.2-2.29,9.379-32.562,9.533-38.824L21.337,8
		H0.221L0.247,9.024z M15.56,58H6.046c0.357-0.62,1.008-1,1.733-1h6C14.534,57,15.209,57.411,15.56,58z M10.779,46
		c-3.355,0-5.878-8.764-7.294-20h14.588C16.657,37.236,14.134,46,10.779,46z M19.285,10c-0.144,4.739-0.475,9.527-0.975,14H3.249
		c-0.5-4.473-0.831-9.261-0.975-14H19.285z"/>
	<circle cx="7.279" cy="30.5" r="1.5"/>
	<circle cx="13.279" cy="33.5" r="1.5"/>
	<circle cx="9.279" cy="37.5" r="1.5"/>
	<path d="M59.44,52.778c-1.176-1.458-3.175-1.904-4.859-1.085l-1.827,0.886l-3.158-6.027c6.331-5.679-5.794-33.377-8.385-39.072
		l-0.424-0.933l-19,9.215l0.47,0.91c2.792,5.414,16.368,30.849,24.818,30.849c0.249,0,0.491-0.034,0.73-0.079l3.149,6.01
		l-1.771,0.859c-1.687,0.817-2.573,2.662-2.155,4.488c0.105,0.459,0.411,0.84,0.839,1.045c0.217,0.104,0.45,0.156,0.683,0.156
		c0.234,0,0.468-0.053,0.685-0.158l9.657-4.685c0.434-0.21,0.743-0.601,0.849-1.072C59.845,53.622,59.736,53.146,59.44,52.778z
		 M39.813,9.243c2.839,6.335,5.363,12.941,7.12,18.757H30.968c-2.223-3.575-4.424-7.44-6.46-11.334L39.813,9.243z M32.236,30h15.281
		c2.24,8.011,2.803,14.158,0.353,15.346C44.798,46.841,38.531,39.77,32.236,30z M48.931,57.769c0.048-0.7,0.463-1.337,1.125-1.658
		l5.398-2.618c0.283-0.137,0.583-0.203,0.878-0.203c0.397,0,0.787,0.119,1.119,0.346L48.931,57.769z"/>
	<circle cx="37.957" cy="32.927" r="1.5"/>
	<circle cx="44.665" cy="33.008" r="1.5"/>
	<circle cx="42.811" cy="38.352" r="1.5"/>
	<path d="M22.779,6c0.552,0,1-0.447,1-1V1c0-0.553-0.448-1-1-1s-1,0.447-1,1v4C21.779,5.553,22.227,6,22.779,6z"/>
	<path d="M26.779,7c0.256,0,0.512-0.098,0.707-0.293l3-3c0.391-0.391,0.391-1.023,0-1.414s-1.023-0.391-1.414,0l-3,3
		c-0.391,0.391-0.391,1.023,0,1.414C26.268,6.902,26.524,7,26.779,7z"/>
	<path d="M27.779,9c0,0.553,0.448,1,1,1h3c0.552,0,1-0.447,1-1s-0.448-1-1-1h-3C28.227,8,27.779,8.447,27.779,9z"/>
	<path d="M18.072,6.707C18.268,6.902,18.524,7,18.779,7s0.512-0.098,0.707-0.293c0.391-0.391,0.391-1.023,0-1.414l-3-3
		c-0.391-0.391-1.023-0.391-1.414,0s-0.391,1.023,0,1.414L18.072,6.707z"/>
</g>
<g>
</g>
<g>
</g>
<g>
</g>
<g>
</g>
<g>
</g>
<g>
</g>
<g>
</g>
<g>
</g>
<g>
</g>
<g>
</g>
<g>
</g>
<g>
</g>
<g>
</g>
<g>
</g>
<g>
</g>
</svg>
