<?xml version="1.0" encoding="UTF-8" standalone="no"?>
<!-- Created with Inkscape (http://www.inkscape.org/) -->

<svg
   xmlns:dc="http://purl.org/dc/elements/1.1/"
   xmlns:cc="http://creativecommons.org/ns#"
   xmlns:rdf="http://www.w3.org/1999/02/22-rdf-syntax-ns#"
   xmlns:svg="http://www.w3.org/2000/svg"
   xmlns="http://www.w3.org/2000/svg"
   xmlns:sodipodi="http://sodipodi.sourceforge.net/DTD/sodipodi-0.dtd"
   xmlns:inkscape="http://www.inkscape.org/namespaces/inkscape"
   width="72.245003"
   height="72.245003"
   viewBox="0 0 72.245003 72.245004"
   id="svg6377"
   version="1.1"
   inkscape:version="0.91 r13725"
   sodipodi:docname="logo-neves-films.svg">
  <defs
     id="defs6379" />
  <sodipodi:namedview
     id="base"
     pagecolor="#ffffff"
     bordercolor="#666666"
     borderopacity="1.0"
     inkscape:pageopacity="0.0"
     inkscape:pageshadow="2"
     inkscape:zoom="3.959798"
     inkscape:cx="52.701729"
     inkscape:cy="44.84301"
     inkscape:document-units="px"
     inkscape:current-layer="layer1"
     showgrid="false"
     units="px"
     inkscape:window-width="1920"
     inkscape:window-height="1021"
     inkscape:window-x="0"
     inkscape:window-y="0"
     inkscape:window-maximized="1" />
  <metadata
     id="metadata6382">
    <rdf:RDF>
      <cc:Work
         rdf:about="">
        <dc:format>image/svg+xml</dc:format>
        <dc:type
           rdf:resource="http://purl.org/dc/dcmitype/StillImage" />
        <dc:title></dc:title>
      </cc:Work>
    </rdf:RDF>
  </metadata>
  <g
     inkscape:label="Layer 1"
     inkscape:groupmode="layer"
     id="layer1"
     transform="translate(0,-980.11716)">
    <g
       id="g5728"
       transform="matrix(0.7614969,0,0,0.7614969,-259.48354,2358.7354)">
      <rect
         y="-1809.652"
         x="341.3558"
         height="93.69165"
         width="93.868423"
         id="rect5626"
         style="color:#000000;clip-rule:nonzero;display:inline;overflow:visible;visibility:visible;opacity:1;isolation:auto;mix-blend-mode:normal;color-interpolation:sRGB;color-interpolation-filters:linearRGB;solid-color:#000000;solid-opacity:1;fill:#ffffff;fill-opacity:1;fill-rule:nonzero;stroke:none;stroke-width:1.39999998;stroke-linecap:round;stroke-linejoin:round;stroke-miterlimit:4;stroke-dasharray:none;stroke-dashoffset:0;stroke-opacity:1;color-rendering:auto;image-rendering:auto;shape-rendering:auto;text-rendering:auto;enable-background:accumulate" />
      <path
         inkscape:connector-curvature="0"
         id="path4886"
         d="m 340.75456,-1762.9695 0,-47.4363 47.43631,0 47.43632,0 0,47.4363 0,47.4363 -47.43632,0 -47.43631,0 0,-47.4363 z m 84.3867,36.868 c 3.13464,-1.621 3.82379,-7.2347 1.20752,-9.8361 -0.5497,-0.5466 -1.711,-1.2524 -2.58067,-1.5685 -3.55649,-1.2926 -4.24108,-1.6809 -4.45308,-2.5256 -0.31405,-1.2513 0.58822,-2.0658 2.2884,-2.0658 1.52057,0 2.63904,0.8042 2.63904,1.8974 0,0.5482 0.21082,0.6325 1.58121,0.6325 1.53828,0 1.58121,-0.025 1.58121,-0.9281 0,-2.0857 -1.47052,-4.1537 -3.40846,-4.7932 l -1.09045,-0.3599 1.22167,-0.6821 c 1.4163,-0.7908 3.11277,-3.1534 3.62329,-5.046 0.78302,-2.9028 -0.44632,-6.5234 -2.83311,-8.3439 -1.27451,-0.9721 -2.69109,-1.4891 -8.9819,-3.278 -2.67691,-0.7612 -4.02689,-1.735 -4.02689,-2.9048 0,-2.4044 5.27563,-3.5076 8.05749,-1.6848 0.42412,0.2778 0.94184,1.075 1.15051,1.7715 0.37832,1.2627 0.38379,1.2662 1.98957,1.2627 2.79192,-0.01 3.98204,-0.3136 3.98204,-1.029 0,-2.6191 -2.445,-5.7968 -5.31043,-6.9016 -2.42837,-0.9363 -7.32921,-1.0118 -9.85073,-0.1516 -5.20708,1.7762 -7.044,7.8359 -3.59633,11.8637 1.38355,1.6164 3.49472,2.6223 8.22089,3.9172 4.40495,1.2068 5.33909,1.7104 5.63003,3.035 0.41789,1.9027 -1.37341,3.8429 -3.92464,4.2508 -1.44444,0.231 -3.93604,-0.2362 -5.01561,-0.9404 -0.64541,-0.421 -1.61246,-2.1262 -2.09823,-3.6998 -0.15361,-0.4976 -0.426,-0.5452 -2.15607,-0.3768 -3.48022,0.3386 -3.50572,0.351 -3.30211,1.6058 0.4676,2.8814 2.81865,6.2021 5.0437,7.1237 0.98215,0.4068 0.98698,0.4188 0.23896,0.5954 -0.71769,0.1694 -0.83935,0.553 -2.03149,6.4039 -0.69745,3.423 -1.30643,6.1853 -1.35328,6.1385 -0.0468,-0.047 -0.58855,-2.5674 -1.20375,-5.6013 -0.61522,-3.0339 -1.19087,-5.8363 -1.27925,-6.2277 -0.13362,-0.5918 -0.37246,-0.7115 -1.4196,-0.7115 l -1.25894,0 0,-2.3718 0,-2.3719 -7.74793,0 -7.74794,0 0,-3.6367 0,-3.6368 6.95733,0 6.95734,0 0,-2.3719 0,-2.3718 -6.95734,0 -6.95733,0 0,-3.0043 0,-3.0043 7.43169,0 7.4317,0 0,-2.3718 0,-2.3718 -2.37182,0 -2.37182,0 0,-2.3718 0,-2.3718 -7.5898,0 -7.58982,0 0,-3.6368 0,-3.6368 6.79921,0 6.7992,0 0,-2.5299 0,-2.53 -6.7992,0 -6.79921,0 0,-2.8403 0,-2.8404 7.35263,-0.085 7.35262,-0.085 0,-2.3718 0,-2.3718 -10.1988,-0.084 -10.19881,-0.083 0,13.9033 0,13.9032 -1.80525,0.095 -1.80525,0.095 -3.07483,9.3291 c -1.69116,5.1311 -3.1628,9.6138 -3.27032,9.9617 -0.13322,0.431 -0.94645,-1.533 -2.55343,-6.1668 -1.29688,-3.7395 -2.87069,-8.2578 -3.49738,-10.0406 l -1.13942,-3.2415 -2.65364,0 -2.65367,0 0.0124,-8.9339 0.0124,-8.9338 0.76864,1.265 c 0.42275,0.6957 2.88265,4.6804 5.46644,8.8547 l 4.69781,7.5899 2.90496,0.091 2.90498,0.091 -0.0824,-13.8475 -0.0824,-13.8475 -2.52994,0 -2.52994,0 -0.15812,8.9841 -0.15812,8.9841 -5.05987,-8.298 c -2.78293,-4.564 -5.32358,-8.6479 -5.6459,-9.0755 -0.55013,-0.7298 -0.74377,-0.7718 -3.16242,-0.6861 l -2.5764,0.091 -0.0824,13.8356 -0.0824,13.8356 2.29608,0 2.29609,0 4.90174,13.7624 4.90176,13.7624 3.11946,-0.088 3.11946,-0.088 4.8302,-13.5984 4.83023,-13.5984 1.30039,-0.097 1.30042,-0.097 0,13.7747 0,13.7747 -4.11115,0 -4.11115,0 0,9.8035 0,9.8035 1.58121,0 1.58122,0 0,-4.1111 0,-4.1112 3.16242,0 3.16242,0 0,-1.7393 0,-1.7393 -3.16242,0 -3.16242,0 0,-2.2137 0,-2.2137 3.62025,0 3.62025,0 0.0956,-1.6354 c 0.0557,-0.9535 0.26044,-1.6898 0.49089,-1.7657 0.31055,-0.1024 0.3953,1.977 0.3953,9.6996 l 0,9.8301 1.58121,0 1.58122,0 0,-9.8035 c 0,-9.5926 0.0136,-9.8035 0.63247,-9.8035 0.61723,0 0.63337,0.223 0.66898,9.2501 0.0201,5.0875 0.0556,9.4636 0.079,9.7244 0.0356,0.3973 0.90328,0.4885 5.33964,0.5611 l 5.29705,0.087 0,-1.7369 0,-1.737 -3.71585,-0.089 -3.71584,-0.089 -0.0892,-7.2735 c -0.0491,-4.0005 -0.0108,-7.5938 0.0851,-7.9852 0.16918,-0.6905 0.2906,-0.7115 4.12131,-0.7115 l 3.947,0 0,9.8208 0,9.8209 1.50215,-0.096 1.50214,-0.096 0.11459,-6.6411 0.11458,-6.6411 1.30954,6.6411 1.30955,6.6411 1.49084,0.096 c 1.33186,0.086 1.50993,0.018 1.66976,-0.6325 0.0984,-0.4007 0.72776,-3.5035 1.39856,-6.8952 l 1.21965,-6.1667 0.0349,6.8956 0.0349,6.8956 1.50215,-0.096 1.50214,-0.096 0.0837,-9.4082 0.0837,-9.4082 1.40005,0 1.40004,0 -0.76847,1.344 c -0.54476,0.9528 -0.76957,1.8303 -0.77226,3.0145 -0.008,3.2376 1.33588,4.8921 4.94758,6.094 2.14964,0.7153 3.58715,1.7742 3.58715,2.6423 0,0.8885 -0.70078,2.0144 -1.47284,2.3662 -1.96128,0.8936 -3.62658,0.1218 -4.36012,-2.0207 -0.23819,-0.6958 -0.58862,-1.2508 -0.77873,-1.2334 -0.1901,0.017 -0.84372,0.053 -1.45249,0.079 -0.93355,0.04 -1.10685,0.1624 -1.10685,0.7817 0,2.3088 2.00083,5.2792 3.98267,5.9126 1.28592,0.411 4.26045,0.1632 5.45467,-0.4543 z m -54.41272,-3.2673 -0.0891,-3.7158 -3.71585,-0.089 -3.71584,-0.089 0,3.8049 0,3.805 3.80494,0 3.80494,0 -0.0891,-3.7159 z"
         style="fill:#373737;fill-opacity:1" />
    </g>
  </g>
</svg>
