<?xml version="1.0" encoding="UTF-8" standalone="no"?>
<!-- Created with Inkscape (http://www.inkscape.org/) -->

<svg
   xmlns:dc="http://purl.org/dc/elements/1.1/"
   xmlns:cc="http://creativecommons.org/ns#"
   xmlns:rdf="http://www.w3.org/1999/02/22-rdf-syntax-ns#"
   xmlns:svg="http://www.w3.org/2000/svg"
   xmlns="http://www.w3.org/2000/svg"
   xmlns:xlink="http://www.w3.org/1999/xlink"
   xmlns:sodipodi="http://sodipodi.sourceforge.net/DTD/sodipodi-0.dtd"
   xmlns:inkscape="http://www.inkscape.org/namespaces/inkscape"
   width="211.356"
   height="163.521"
   viewBox="0 0 211.356 163.521"
   id="svg5307"
   version="1.1"
   inkscape:version="0.91 r13725"
   sodipodi:docname="logo-tv-gaspar.svg">
  <defs
     id="defs5309">
    <radialGradient
       inkscape:collect="always"
       xlink:href="#linearGradient4381"
       id="radialGradient5243"
       gradientUnits="userSpaceOnUse"
       gradientTransform="matrix(3.318973,4.0162148,-3.6344801,3.0017801,3162.8806,-4798.4793)"
       cx="131.13667"
       cy="318.57098"
       fx="131.13667"
       fy="318.57098"
       r="38.35714" />
    <linearGradient
       inkscape:collect="always"
       id="linearGradient4381">
      <stop
         style="stop-color:#d5baba;stop-opacity:1"
         offset="0"
         id="stop4383" />
      <stop
         id="stop4391"
         offset="0.66117871"
         style="stop-color:#c42c29;stop-opacity:1" />
      <stop
         style="stop-color:#841d1c;stop-opacity:1"
         offset="1"
         id="stop4385" />
    </linearGradient>
    <radialGradient
       inkscape:collect="always"
       xlink:href="#linearGradient4381"
       id="radialGradient5245"
       gradientUnits="userSpaceOnUse"
       gradientTransform="matrix(3.318973,4.0162148,-3.6344801,3.0017801,3162.8806,-4798.4793)"
       cx="131.13667"
       cy="318.57098"
       fx="131.13667"
       fy="318.57098"
       r="38.35714" />
    <clipPath
       clipPathUnits="userSpaceOnUse"
       id="clipPath8169">
      <rect
         style="color:#000000;clip-rule:nonzero;display:inline;overflow:visible;visibility:visible;opacity:0.99900004;isolation:auto;mix-blend-mode:normal;color-interpolation:sRGB;color-interpolation-filters:linearRGB;solid-color:#000000;solid-opacity:1;fill:url(#radialGradient8173);fill-opacity:1;fill-rule:nonzero;stroke:none;stroke-width:0.99999994;stroke-linecap:round;stroke-linejoin:round;stroke-miterlimit:4;stroke-dasharray:none;stroke-dashoffset:0;stroke-opacity:1;color-rendering:auto;image-rendering:auto;shape-rendering:auto;text-rendering:auto;enable-background:accumulate"
         id="rect8171"
         width="149.83902"
         height="165.694"
         x="2424.8333"
         y="-3328.4248"
         ry="16.601357" />
    </clipPath>
    <radialGradient
       inkscape:collect="always"
       xlink:href="#linearGradient4381"
       id="radialGradient5247"
       gradientUnits="userSpaceOnUse"
       gradientTransform="matrix(2.6153417,4.0244459,-2.8639605,3.0079322,2880.7293,-4801.3772)"
       cx="131.13667"
       cy="318.57098"
       fx="131.13667"
       fy="318.57098"
       r="38.35714" />
    <radialGradient
       inkscape:collect="always"
       xlink:href="#linearGradient4381"
       id="radialGradient5249"
       gradientUnits="userSpaceOnUse"
       gradientTransform="matrix(2.6153417,4.0244459,-2.8639605,3.0079322,2880.7293,-4801.3772)"
       cx="131.13667"
       cy="318.57098"
       fx="131.13667"
       fy="318.57098"
       r="38.35714" />
    <clipPath
       clipPathUnits="userSpaceOnUse"
       id="clipPath8161">
      <rect
         ry="16.635382"
         y="-3328.3101"
         x="2299.1501"
         height="166.0336"
         width="118.07274"
         id="rect8163"
         style="color:#000000;clip-rule:nonzero;display:inline;overflow:visible;visibility:visible;opacity:0.99900004;isolation:auto;mix-blend-mode:normal;color-interpolation:sRGB;color-interpolation-filters:linearRGB;solid-color:#000000;solid-opacity:1;fill:url(#radialGradient8165);fill-opacity:1;fill-rule:nonzero;stroke:none;stroke-width:0.99999994;stroke-linecap:round;stroke-linejoin:round;stroke-miterlimit:4;stroke-dasharray:none;stroke-dashoffset:0;stroke-opacity:1;color-rendering:auto;image-rendering:auto;shape-rendering:auto;text-rendering:auto;enable-background:accumulate" />
    </clipPath>
  </defs>
  <sodipodi:namedview
     id="base"
     pagecolor="#ffffff"
     bordercolor="#666666"
     borderopacity="1.0"
     inkscape:pageopacity="0.0"
     inkscape:pageshadow="2"
     inkscape:zoom="0.35"
     inkscape:cx="-83.571429"
     inkscape:cy="520"
     inkscape:document-units="px"
     inkscape:current-layer="layer1"
     showgrid="false"
     units="px"
     inkscape:window-width="1920"
     inkscape:window-height="1021"
     inkscape:window-x="0"
     inkscape:window-y="0"
     inkscape:window-maximized="1" />
  <metadata
     id="metadata5312">
    <rdf:RDF>
      <cc:Work
         rdf:about="">
        <dc:format>image/svg+xml</dc:format>
        <dc:type
           rdf:resource="http://purl.org/dc/dcmitype/StillImage" />
        <dc:title></dc:title>
      </cc:Work>
    </rdf:RDF>
  </metadata>
  <g
     inkscape:label="Layer 1"
     inkscape:groupmode="layer"
     id="layer1"
     transform="translate(0,-888.84112)">
    <g
       transform="matrix(0.76711132,0,0,0.76711132,-1763.7041,3442.1135)"
       id="g5219">
      <rect
         style="color:#000000;clip-rule:nonzero;display:inline;overflow:visible;visibility:visible;opacity:0.99900004;isolation:auto;mix-blend-mode:normal;color-interpolation:sRGB;color-interpolation-filters:linearRGB;solid-color:#000000;solid-opacity:1;fill:url(#radialGradient5243);fill-opacity:1;fill-rule:nonzero;stroke:none;stroke-width:0.99999994;stroke-linecap:round;stroke-linejoin:round;stroke-miterlimit:4;stroke-dasharray:none;stroke-dashoffset:0;stroke-opacity:1;color-rendering:auto;image-rendering:auto;shape-rendering:auto;text-rendering:auto;enable-background:accumulate"
         id="rect5221"
         width="149.83902"
         height="165.694"
         x="2424.8333"
         y="-3328.4248"
         ry="16.601357" />
      <rect
         ry="16.601357"
         y="-3328.4248"
         x="2424.8333"
         height="165.694"
         width="149.83902"
         id="rect5223"
         style="color:#000000;clip-rule:nonzero;display:inline;overflow:visible;visibility:visible;opacity:0.99900004;isolation:auto;mix-blend-mode:normal;color-interpolation:sRGB;color-interpolation-filters:linearRGB;solid-color:#000000;solid-opacity:1;fill:url(#radialGradient5245);fill-opacity:1;fill-rule:nonzero;stroke:none;stroke-width:0.99999994;stroke-linecap:round;stroke-linejoin:round;stroke-miterlimit:4;stroke-dasharray:none;stroke-dashoffset:0;stroke-opacity:1;color-rendering:auto;image-rendering:auto;shape-rendering:auto;text-rendering:auto;enable-background:accumulate" />
      <path
         style="color:#000000;clip-rule:nonzero;display:inline;overflow:visible;visibility:visible;opacity:0.99900004;isolation:auto;mix-blend-mode:normal;color-interpolation:sRGB;color-interpolation-filters:linearRGB;solid-color:#000000;solid-opacity:1;fill:#ffffff;fill-opacity:0.1168831;fill-rule:nonzero;stroke:none;stroke-width:1;stroke-linecap:round;stroke-linejoin:round;stroke-miterlimit:4;stroke-dasharray:none;stroke-dashoffset:0;stroke-opacity:1;color-rendering:auto;image-rendering:auto;shape-rendering:auto;text-rendering:auto;enable-background:accumulate"
         d="m 2424.7338,-3328.3261 0,6.6766 149.8111,0 0,-6.6766 -149.8111,0 z m 0,8.7583 0,6.6748 149.8111,0 0,-6.6748 -149.8111,0 z m 0,8.7566 0,6.6748 149.8111,0 0,-6.6748 -149.8111,0 z m 0,8.9136 0,6.6747 149.8111,0 0,-6.6747 -149.8111,0 z m 0,8.7565 0,6.6767 149.8111,0 0,-6.6767 -149.8111,0 z m 0,8.7584 0,6.6748 149.8111,0 0,-6.6748 -149.8111,0 z m 0,8.467 0,6.6768 149.8111,0 0,-6.6768 -149.8111,0 z m 0,8.7585 0,6.6748 149.8111,0 0,-6.6748 -149.8111,0 z m 0,8.7565 0,6.6748 149.8111,0 0,-6.6748 -149.8111,0 z m 0,8.8681 0,6.6749 149.8111,0 0,-6.6749 -149.8111,0 z m 0,8.7566 0,6.6748 149.8111,0 0,-6.6748 -149.8111,0 z m 0,8.7566 0,6.6766 149.8111,0 0,-6.6766 -149.8111,0 z m 0,9.082 0,6.6766 149.8111,0 0,-6.6766 -149.8111,0 z m 0,8.7584 0,6.6747 149.8111,0 0,-6.6747 -149.8111,0 z m 0,8.7565 0,6.6749 149.8111,0 0,-6.6749 -149.8111,0 z m 0,9.3243 0,6.6748 149.8111,0 0,-6.6748 -149.8111,0 z m 0,8.7565 0,6.6748 149.8111,0 0,-6.6748 -149.8111,0 z m 0,8.7565 0,6.6768 149.8111,0 0,-6.6768 -149.8111,0 z m 0,8.9345 0,6.6767 149.8111,0 0,-6.6767 -149.8111,0 z"
         id="path5225"
         inkscape:connector-curvature="0"
         clip-path="url(#clipPath8169)" />
      <path
         sodipodi:nodetypes="cccccccccc"
         inkscape:connector-curvature="0"
         id="path5227"
         d="m 2498.7959,-3215.3671 45.4995,-94.1524 23.9425,0.1767 c 1.4426,1.0343 2.2057,2.3233 1.7669,4.0629 l -60.554,122.0624 c -6.3552,11.9648 -17.2938,7.9357 -21.4334,0.3533 l -59.4103,-122.6753 c 0.4257,-2.3665 1.4664,-3.1962 2.5461,-3.9282 l 23.6452,0.1248 z"
         style="fill:#000000;fill-opacity:1;fill-rule:evenodd;stroke:#000000;stroke-width:1.82502818;stroke-linecap:butt;stroke-linejoin:miter;stroke-miterlimit:4;stroke-dasharray:none;stroke-opacity:1" />
      <path
         style="fill:#ffffff;fill-rule:evenodd;stroke:none;stroke-width:1px;stroke-linecap:butt;stroke-linejoin:miter;stroke-opacity:1"
         d="m 2497.7764,-3217.2306 45.4995,-94.1524 23.9425,0.1767 c 1.4426,1.0342 2.2057,2.3233 1.7669,4.0628 l -60.554,122.0625 c -6.3552,11.9648 -17.2938,7.9357 -21.4334,0.3533 l -59.4103,-122.6754 c 0.4257,-2.3665 1.4663,-3.1961 2.5461,-3.9281 l 23.6452,0.1248 z"
         id="path5229"
         inkscape:connector-curvature="0"
         sodipodi:nodetypes="cccccccccc" />
      <rect
         ry="16.635382"
         y="-3328.3101"
         x="2299.1501"
         height="166.0336"
         width="118.07274"
         id="rect5231"
         style="color:#000000;clip-rule:nonzero;display:inline;overflow:visible;visibility:visible;opacity:0.99900004;isolation:auto;mix-blend-mode:normal;color-interpolation:sRGB;color-interpolation-filters:linearRGB;solid-color:#000000;solid-opacity:1;fill:url(#radialGradient5247);fill-opacity:1;fill-rule:nonzero;stroke:none;stroke-width:0.99999994;stroke-linecap:round;stroke-linejoin:round;stroke-miterlimit:4;stroke-dasharray:none;stroke-dashoffset:0;stroke-opacity:1;color-rendering:auto;image-rendering:auto;shape-rendering:auto;text-rendering:auto;enable-background:accumulate" />
      <rect
         style="color:#000000;clip-rule:nonzero;display:inline;overflow:visible;visibility:visible;opacity:0.99900004;isolation:auto;mix-blend-mode:normal;color-interpolation:sRGB;color-interpolation-filters:linearRGB;solid-color:#000000;solid-opacity:1;fill:url(#radialGradient5249);fill-opacity:1;fill-rule:nonzero;stroke:none;stroke-width:0.99999994;stroke-linecap:round;stroke-linejoin:round;stroke-miterlimit:4;stroke-dasharray:none;stroke-dashoffset:0;stroke-opacity:1;color-rendering:auto;image-rendering:auto;shape-rendering:auto;text-rendering:auto;enable-background:accumulate"
         id="rect5233"
         width="118.07274"
         height="166.0336"
         x="2299.1501"
         y="-3328.3101"
         ry="16.635382" />
      <path
         style="color:#000000;clip-rule:nonzero;display:inline;overflow:visible;visibility:visible;opacity:0.99900004;isolation:auto;mix-blend-mode:normal;color-interpolation:sRGB;color-interpolation-filters:linearRGB;solid-color:#000000;solid-opacity:1;fill:#ffffff;fill-opacity:0.1168831;fill-rule:nonzero;stroke:none;stroke-width:1;stroke-linecap:round;stroke-linejoin:round;stroke-miterlimit:4;stroke-dasharray:none;stroke-dashoffset:0;stroke-opacity:1;color-rendering:auto;image-rendering:auto;shape-rendering:auto;text-rendering:auto;enable-background:accumulate"
         d="m 2299.0366,-3328.2183 0,6.6881 118.0864,0 0,-6.6881 -118.0864,0 z m 0,8.7755 0,6.688 118.0864,0 0,-6.688 -118.0864,0 z m 0,8.7735 0,6.6899 118.0864,0 0,-6.6899 -118.0864,0 z m 0,8.9326 0,6.688 118.0864,0 0,-6.688 -118.0864,0 z m 0,8.7754 0,6.6881 118.0864,0 0,-6.6881 -118.0864,0 z m 0,8.7736 0,6.6899 118.0864,0 0,-6.6899 -118.0864,0 z m 0,8.4859 0,6.6899 118.0864,0 0,-6.6899 -118.0864,0 z m 0,8.7755 0,6.6899 118.0864,0 0,-6.6899 -118.0864,0 z m 0,8.7754 0,6.6881 118.0864,0 0,-6.6881 -118.0864,0 z m 0,8.8852 0,6.6899 118.0864,0 0,-6.6899 -118.0864,0 z m 0,8.7755 0,6.6899 118.0864,0 0,-6.6899 -118.0864,0 z m 0,8.7754 0,6.6881 118.0864,0 0,-6.6881 -118.0864,0 z m 0,9.0991 0,6.6899 118.0864,0 0,-6.6899 -118.0864,0 z m 0,8.7755 0,6.6899 118.0864,0 0,-6.6899 -118.0864,0 z m 0,8.7754 0,6.6899 118.0864,0 0,-6.6899 -118.0864,0 z m 0,9.3432 0,6.688 118.0864,0 0,-6.688 -118.0864,0 z m 0,8.7754 0,6.6881 118.0864,0 0,-6.6881 -118.0864,0 z m 0,8.7755 0,6.688 118.0864,0 0,-6.688 -118.0864,0 z m 0,8.9515 0,6.69 118.0864,0 0,-6.69 -118.0864,0 z"
         id="path5235"
         inkscape:connector-curvature="0"
         clip-path="url(#clipPath8161)" />
      <path
         sodipodi:nodetypes="ccccccccccccccc"
         inkscape:connector-curvature="0"
         id="path5237"
         d="m 2306.7435,-3286.5551 c 0.515,0.95 1.0612,1.8845 2.4989,2.3733 l 37.9829,0 0.3148,104.0593 c 0.2123,1.4164 1.6219,3.9907 3.3622,3.9233 l 16.0641,0.062 c 1.9465,-0.3541 2.9877,-2.7649 3.3634,-3.7472 l -0.125,-104.4353 37.3682,0.1249 c 1.8527,-0.1694 2.165,-1.1661 2.7488,-1.8112 l -0.079,-21.9426 c -0.034,-1.641 -1.2953,-2.3788 -2.5313,-2.4593 -126.1494,-0.2011 -65.0118,0.093 -98.198,-0.1084 -1.7478,0.6567 -2.2137,1.7406 -2.5721,2.8603 z"
         style="fill:#333333;fill-opacity:1;fill-rule:evenodd;stroke:#000000;stroke-width:1.82502818;stroke-linecap:butt;stroke-linejoin:miter;stroke-miterlimit:4;stroke-dasharray:none;stroke-opacity:1" />
      <path
         style="fill:#ffffff;fill-rule:evenodd;stroke:none;stroke-width:1;stroke-linecap:butt;stroke-linejoin:miter;stroke-miterlimit:4;stroke-dasharray:none;stroke-opacity:1"
         d="m 2305.3281,-3288.0865 c 0.515,0.95 1.0611,1.8844 2.4989,2.3732 l 37.9828,0 0.3149,104.0594 c 0.2123,1.4163 1.6218,3.9907 3.3622,3.9232 l 16.064,0.063 c 1.9466,-0.3541 2.9878,-2.765 3.3635,-3.7473 l -0.125,-104.4352 37.3682,0.1248 c 1.8527,-0.1693 2.165,-1.166 2.7488,-1.8111 l -0.079,-21.9426 c -0.034,-1.641 -1.2954,-2.3788 -2.5313,-2.4594 -126.1494,-0.201 -65.0119,0.093 -98.1981,-0.1084 -1.7477,0.6567 -2.2136,1.7406 -2.572,2.8603 z"
         id="path5239"
         inkscape:connector-curvature="0"
         sodipodi:nodetypes="ccccccccccccccc" />
      <path
         style="fill:#a42422;fill-opacity:1"
         d="m 2470.3247,-3115.35 c -0.1457,-0.053 -0.5106,-0.2083 -0.8111,-0.3461 l -0.5461,-0.2503 0.237,-0.9134 c 0.3377,-1.3015 0.778,-2.4389 1.159,-2.9935 0.1807,-0.2634 0.566,-1.0537 0.8558,-1.7564 0.2899,-0.7027 0.6435,-1.4063 0.7859,-1.5636 0.1423,-0.1573 0.4136,-0.7354 0.6026,-1.2847 0.189,-0.5493 0.6179,-1.497 0.953,-2.106 0.3351,-0.609 0.7091,-1.425 0.8311,-1.8134 0.122,-0.3883 0.3661,-0.8914 0.5422,-1.1179 0.1761,-0.2265 0.4879,-0.862 0.6928,-1.4122 0.205,-0.5502 0.5962,-1.3578 0.8696,-1.7947 0.2734,-0.4369 0.6307,-1.2081 0.7942,-1.7138 0.1634,-0.5057 0.489,-1.2022 0.7236,-1.5478 0.2345,-0.3455 0.5794,-1.0938 0.7662,-1.6629 0.1868,-0.569 0.5856,-1.3739 0.8861,-1.7886 0.3005,-0.4146 0.5441,-0.881 0.5415,-1.0363 0,-0.1553 0.3507,-0.9974 0.7852,-1.8712 0.4345,-0.8738 0.9947,-2.0256 1.2449,-2.5596 1.0907,-2.3277 1.6346,-3.1762 2.5913,-4.0421 0.7829,-0.7085 1.162,-0.9237 1.7658,-1.002 0.7002,-0.091 0.8557,-0.034 1.7401,0.6342 0.5341,0.4036 1.1598,1.0644 1.3904,1.4686 0.2307,0.4041 0.5698,0.926 0.7536,1.1598 0.1839,0.2337 0.454,0.8365 0.6003,1.3394 0.1462,0.503 0.4602,1.1778 0.6977,1.4996 0.2375,0.3218 0.5982,1.085 0.8016,1.696 0.2033,0.611 0.5219,1.3043 0.7078,1.5406 0.1861,0.2364 0.548,1.0113 0.8045,1.7222 0.2565,0.7108 0.6547,1.5769 0.8849,1.9247 0.2302,0.3477 0.5381,1.035 0.6843,1.5272 0.1463,0.4923 0.476,1.2045 0.7328,1.5828 0.2569,0.3783 0.6092,1.1011 0.783,1.6061 0.1738,0.505 0.5199,1.266 0.7691,1.691 0.2492,0.4252 0.6109,1.2314 0.8037,1.7917 0.1928,0.5603 0.5159,1.2862 0.718,1.6131 0.2021,0.3269 0.5547,1.0719 0.7835,1.6557 0.2289,0.5837 0.5703,1.2813 0.7589,1.5502 0.1886,0.2689 0.4816,0.9258 0.6512,1.4598 0.1696,0.534 0.4938,1.2597 0.7203,1.6127 0.2265,0.3529 0.5699,1.1076 0.7632,1.677 0.1932,0.5692 0.5166,1.4721 0.7186,2.006 0.2019,0.534 0.3312,1.0652 0.2872,1.1806 -0.044,0.1153 -0.3823,0.2936 -0.7518,0.3961 -0.8338,0.2315 -3.8517,0.2475 -4.2719,0.023 -0.3761,-0.2012 -1.8568,-2.6685 -2.2214,-3.7016 -0.1446,-0.4098 -0.4185,-0.9427 -0.6087,-1.1844 -0.1901,-0.2417 -0.5125,-0.9316 -0.7164,-1.5331 -0.2039,-0.6016 -0.7666,-1.63 -1.2504,-2.2853 -0.8381,-1.1352 -0.915,-1.1923 -1.627,-1.2073 -0.411,-0.01 -2.7735,0 -5.2499,0.012 -2.4765,0.016 -4.6447,-0.027 -4.8182,-0.094 -0.1736,-0.067 -0.4315,-0.3466 -0.5733,-0.6206 -0.3076,-0.5947 -0.2058,-0.9263 0.6926,-2.257 0.3507,-0.5195 0.6377,-1.0777 0.6377,-1.2405 0,-0.5099 0.5217,-1.0707 1.419,-1.5253 0.7569,-0.3834 1.0951,-0.438 2.7131,-0.438 2.0308,0 2.6308,-0.1456 2.9341,-0.7122 0.1678,-0.3133 0.1263,-0.4843 -0.2493,-1.026 -0.2479,-0.3575 -0.6086,-1.109 -0.8017,-1.6699 -0.1929,-0.561 -0.5127,-1.2256 -0.7104,-1.4768 -0.1977,-0.2513 -0.5193,-0.9934 -0.7147,-1.6491 -0.4584,-1.5389 -0.6041,-1.654 -1.5553,-1.2282 -0.5745,0.2571 -0.8321,0.5142 -1.0946,1.0924 -0.1888,0.4159 -0.3451,0.88 -0.3472,1.0314 0,0.1513 -0.2749,0.7251 -0.6061,1.2749 -0.3312,0.5499 -0.7308,1.3868 -0.8879,1.8599 -0.1572,0.473 -0.48,1.1232 -0.7173,1.4448 -0.2373,0.3216 -0.6371,1.1225 -0.8883,1.7797 -0.2512,0.6573 -0.559,1.2798 -0.6839,1.3835 -0.2536,0.2104 -0.7352,1.2798 -0.8808,1.9557 -0.052,0.2426 -0.3758,0.8754 -0.7191,1.4062 -0.3432,0.5307 -0.624,1.0961 -0.624,1.2564 0,0.1603 -0.3576,0.9922 -0.7946,1.8484 -0.437,0.8562 -0.7946,1.6459 -0.7946,1.7548 0,0.109 -0.2589,0.6303 -0.5754,1.1585 -0.3165,0.5283 -0.7943,1.4779 -1.0616,2.1103 -0.2674,0.6325 -0.7939,1.4864 -1.1699,1.8977 l -0.6838,0.7478 -1.4186,0 c -0.7802,0 -1.5243,0.034 -1.6537,0.074 -0.1294,0.041 -0.3543,0.031 -0.5,-0.021 z m 63.067,-0.04 c -1.9096,-0.089 -2.2085,-0.1446 -2.4287,-0.4541 -0.2823,-0.3968 -1.9396,-2.5248 -2.9361,-3.7701 -0.3607,-0.4507 -0.9567,-1.1996 -1.3243,-1.6641 -0.3676,-0.4646 -0.9494,-1.1795 -1.2928,-1.5888 -0.3433,-0.4092 -0.8355,-1.0308 -1.0936,-1.3812 -0.8856,-1.2023 -1.2968,-1.2902 -5.7865,-1.2369 l -3.9729,0.047 -0.5013,-0.5247 c -0.4999,-0.5233 -0.501,-0.53 -0.4414,-2.5606 0.051,-1.7377 0.1142,-2.1088 0.4318,-2.5336 l 0.3719,-0.4977 6.6911,-0.096 c 7.722,-0.1104 7.754,-0.1159 9.2458,-1.6392 1.209,-1.2347 1.608,-2.1127 1.7196,-3.7839 0.2002,-3.0017 -0.7014,-4.8068 -3.0384,-6.083 l -1.0594,-0.5785 -8.0487,-0.052 c -7.7688,-0.051 -8.0634,-0.04 -8.4755,0.2932 l -0.427,0.3455 -0.096,13.4757 c -0.053,7.4116 -0.1124,13.4925 -0.1324,13.5129 -0.7058,0.7193 -0.8227,0.7571 -2.3379,0.7571 -2.1459,0 -2.1384,0.01 -2.3129,-3.4023 -0.2213,-4.33 -0.1791,-28.9959 0.051,-29.9103 0.3456,-1.3721 -0.2724,-1.3033 11.2061,-1.2475 l 10.2198,0.05 1.9423,0.6927 c 3.314,1.1818 5.1375,2.8378 6.7212,6.1036 0.7379,1.5216 1.001,6.1193 0.511,8.9284 -0.2073,1.1885 -0.4494,1.8745 -1.0152,2.8771 -0.8862,1.5699 -2.5873,3.4501 -3.5684,3.9438 -1.0169,0.5118 -1.3021,0.8122 -1.5123,1.5925 -0.1808,0.6718 -0.164,0.7176 0.5747,1.5371 0.4186,0.4646 1.1584,1.3396 1.644,1.9444 0.4855,0.6048 1.2205,1.4918 1.6333,1.9711 0.4127,0.4794 0.7504,0.9326 0.7504,1.0072 0,0.075 0.3576,0.5034 0.7946,0.9529 0.437,0.4495 0.7946,0.9458 0.7946,1.1029 0,0.1571 0.1225,0.5224 0.2722,0.8119 l 0.2721,0.5261 -0.7577,0.3438 c -0.4168,0.1891 -0.8372,0.3315 -0.9344,0.3164 -0.097,-0.016 -1.1564,-0.073 -2.3541,-0.1286 z m -186.9975,-0.2152 c -0.3259,-0.094 -0.8821,-0.3563 -1.236,-0.5834 -0.3538,-0.2272 -0.9612,-0.511 -1.3497,-0.6309 -2.1408,-0.6606 -5.6869,-3.9192 -6.6454,-6.1068 -0.2076,-0.4738 -0.5261,-1.073 -0.7077,-1.3316 -0.1816,-0.2586 -0.6563,-1.7282 -1.0548,-3.2657 -0.6162,-2.3773 -0.7367,-3.1388 -0.8054,-5.0903 -0.057,-1.6021 0,-2.6945 0.1793,-3.6188 0.5423,-2.76 1.1925,-5.2006 1.525,-5.7238 0.1898,-0.2985 0.5798,-0.9797 0.8668,-1.5137 0.6787,-1.2629 2.5565,-3.2959 3.9499,-4.2763 1.0596,-0.7456 3.5073,-1.7703 4.9878,-2.0881 0.8341,-0.179 15.5133,-0.1877 16.1566,-0.01 0.6905,0.1914 0.95,0.9575 1.0271,3.0329 0.066,1.7881 0.051,1.888 -0.3751,2.383 l -0.4444,0.5168 -8.0055,0.088 -8.0055,0.088 -1.5046,0.7328 c -1.6137,0.786 -2.5537,1.6458 -3.7339,3.4156 -0.5013,0.7516 -0.7704,1.4793 -1.1919,3.2223 -0.7067,2.9227 -0.7106,4.2314 -0.021,7.0183 0.6945,2.8073 0.9056,3.1762 2.967,5.1858 0.9924,0.9674 1.267,1.1288 2.6649,1.5663 l 1.5584,0.4878 6.1449,-0.046 6.1449,-0.046 0.3722,-0.4984 c 0.3293,-0.441 0.378,-0.779 0.4233,-2.9388 0.05,-2.3712 0.039,-2.4547 -0.3818,-2.9438 l -0.433,-0.5035 -5.4684,-0.051 c -6.6679,-0.062 -6.1282,0.1895 -6.1282,-2.8614 0,-3.1355 -0.9146,-2.8373 8.5297,-2.782 l 7.8537,0.046 0.3722,0.4981 c 0.3633,0.4863 0.3735,0.6844 0.4272,8.2967 0.062,8.7479 0.018,9.5074 -0.5924,10.1169 l -0.4178,0.4177 -8.5278,-0.016 c -4.905,-0.01 -8.7795,-0.088 -9.1203,-0.1865 z m 21.8258,0.012 c -0.5241,-0.3053 -0.417,-1.7255 0.1936,-2.5683 0.2764,-0.3815 0.6427,-1.1282 0.8139,-1.6593 0.1712,-0.5312 0.4991,-1.245 0.7286,-1.5862 0.2296,-0.3412 0.5675,-1.0561 0.7509,-1.5887 0.1834,-0.5326 0.5829,-1.3612 0.8877,-1.8414 0.3048,-0.4801 0.5541,-0.9662 0.5541,-1.0802 0,-0.1139 0.3973,-0.9825 0.8829,-1.9302 0.4856,-0.9478 0.8829,-1.8581 0.8829,-2.0229 0,-0.1648 0.2392,-0.6607 0.5315,-1.1019 0.2924,-0.4412 0.6819,-1.2393 0.8658,-1.7735 0.1838,-0.5342 0.5381,-1.2791 0.7872,-1.6555 0.2491,-0.3763 0.6032,-1.121 0.787,-1.6548 0.1838,-0.5339 0.5396,-1.2734 0.7908,-1.6435 0.2512,-0.37 0.5767,-1.0849 0.7233,-1.5887 0.1466,-0.5038 0.4664,-1.1864 0.7106,-1.5171 0.2442,-0.3306 0.5742,-1.0058 0.7333,-1.5004 0.1589,-0.4947 0.4834,-1.1877 0.7207,-1.5402 0.2374,-0.3525 0.5978,-1.1071 0.8009,-1.677 0.2032,-0.5698 0.5764,-1.2825 0.8294,-1.5838 0.253,-0.3011 0.5855,-0.7778 0.739,-1.0591 0.1536,-0.2813 0.7265,-0.8169 1.2732,-1.1902 0.9008,-0.6149 1.0642,-0.6668 1.7403,-0.5526 1.0657,0.1798 2.5088,1.5706 3.201,3.0844 0.2884,0.6308 0.6687,1.3304 0.845,1.5546 0.1764,0.2241 0.4544,0.8201 0.6178,1.3243 0.1633,0.5042 0.5201,1.3139 0.7928,1.7994 0.2727,0.4854 0.6283,1.2732 0.7903,1.7506 0.162,0.4774 0.483,1.1527 0.7133,1.5007 0.2304,0.348 0.5747,1.0855 0.7651,1.6389 0.1906,0.5535 0.5502,1.3541 0.7994,1.7792 0.2492,0.425 0.6091,1.2263 0.7999,1.7806 0.1908,0.5542 0.5122,1.2398 0.7143,1.5236 0.2021,0.2838 0.5253,0.9746 0.7182,1.5352 0.193,0.5606 0.5451,1.2996 0.7827,1.6423 0.2375,0.3426 0.583,1.0622 0.7678,1.5991 0.1847,0.5368 0.5755,1.4095 0.8683,1.9392 0.2928,0.5296 0.6651,1.3756 0.8274,1.8798 0.1624,0.5042 0.4374,1.1 0.6112,1.3239 0.1738,0.2239 0.4802,0.8441 0.6807,1.378 0.2006,0.5341 0.6494,1.513 0.9974,2.1753 0.4392,0.836 0.6327,1.4351 0.6327,1.9585 0,1.1739 -0.2999,1.3385 -2.4382,1.3385 -2.4071,0 -3.0512,-0.2565 -3.549,-1.4134 -0.2032,-0.4722 -0.3695,-0.9103 -0.3695,-0.9735 0,-0.063 -0.2366,-0.4457 -0.5257,-0.8499 -0.2892,-0.4042 -0.6794,-1.1719 -0.8672,-1.7059 -0.1878,-0.5339 -0.7501,-1.7852 -1.2495,-2.7806 -1.2685,-2.5285 -0.912,-2.4056 -6.8347,-2.3557 -4.0778,0.034 -4.8787,0 -5.3362,-0.2378 -0.7626,-0.3942 -0.9733,-0.8577 -0.666,-1.4646 0.1356,-0.2678 0.3465,-0.8048 0.4686,-1.1931 0.2071,-0.6588 1.0796,-1.949 1.9396,-2.8685 0.3491,-0.3734 0.5123,-0.3972 2.7176,-0.3972 2.2786,0 2.3581,-0.012 2.7637,-0.4445 l 0.4177,-0.4445 -0.3235,-0.9236 c -0.178,-0.5079 -0.5154,-1.1823 -0.75,-1.4985 -0.2346,-0.3162 -0.5813,-1.0248 -0.7705,-1.5746 -0.4186,-1.2165 -1.0299,-2.2848 -1.6776,-2.9324 -0.4528,-0.4526 -0.5055,-0.4654 -0.8041,-0.1953 -0.1757,0.1589 -0.4104,0.5774 -0.5216,0.9297 -0.1112,0.3523 -0.3872,0.9187 -0.6133,1.2585 -0.2261,0.3398 -0.6039,1.1343 -0.8395,1.7656 -0.2357,0.6312 -0.6379,1.4563 -0.894,1.8336 -0.2561,0.3771 -0.5513,1.0125 -0.6561,1.4118 -0.1047,0.3993 -0.4343,1.0336 -0.7322,1.4095 -0.298,0.376 -0.659,1.0835 -0.8023,1.5721 -0.1434,0.4888 -0.4873,1.246 -0.7643,1.6828 -0.2771,0.4368 -0.6226,1.1989 -0.7678,1.6936 -0.1452,0.4947 -0.4531,1.1774 -0.6843,1.5172 -0.2312,0.3398 -0.5567,1.0316 -0.7235,1.5373 -0.1668,0.5057 -0.502,1.2123 -0.745,1.5702 -0.2429,0.3579 -0.6046,1.0859 -0.8036,1.6178 -0.199,0.5319 -0.582,1.3346 -0.851,1.7838 -0.2689,0.4492 -0.6767,1.1707 -0.9062,1.6034 -0.2632,0.4964 -0.5801,0.832 -0.8586,0.9092 -0.6937,0.1925 -4.292,0.1667 -4.6351,-0.033 z m 37.2443,-0.066 c -0.3715,-0.1326 -0.7246,-0.2899 -0.7847,-0.3501 -0.06,-0.06 -0.168,-1.1145 -0.2397,-2.3431 -0.1418,-2.4289 -0.014,-2.9935 0.7745,-3.4444 0.3035,-0.1733 2.7761,-0.2466 10.6368,-0.3153 l 10.2414,-0.089 1.0058,-0.4778 c 0.8036,-0.3818 1.1298,-0.6717 1.6231,-1.4427 1.1266,-1.7606 1.2023,-3.1724 0.2457,-4.5805 -0.2083,-0.3067 -0.5033,-0.7445 -0.6555,-0.9728 -0.1522,-0.2283 -0.674,-0.581 -1.1596,-0.7838 -0.8338,-0.3482 -1.2998,-0.3742 -8.3873,-0.4675 l -7.5046,-0.099 -1.5579,-0.5207 c -1.7709,-0.592 -3.2302,-1.691 -4.0175,-3.0256 -0.2501,-0.424 -0.5778,-0.9116 -0.7281,-1.0836 -1.1971,-1.3696 -1.1971,-8.2587 0,-9.6283 0.1504,-0.1719 0.478,-0.6552 0.7281,-1.0738 0.681,-1.1399 1.8698,-2.102 3.5448,-2.8689 l 1.5009,-0.6872 10.1972,-0.048 c 8.8367,-0.042 10.2511,-0.012 10.6025,0.2174 0.679,0.4447 0.9868,1.7103 0.856,3.5199 -0.1815,2.5137 0.8237,2.2957 -11.072,2.4011 l -9.9622,0.089 -0.9846,0.9845 c -1.193,1.1929 -1.4419,1.9509 -1.042,3.1738 0.2444,0.7473 0.961,1.4685 2.1997,2.2137 0.1457,0.088 3.5227,0.2023 7.5045,0.2548 8.7604,0.1155 9.0766,0.165 11.0128,1.7241 0.7339,0.591 1.6151,1.5311 2.1396,2.2827 0.7584,1.0866 0.9609,1.5622 1.3534,3.1775 0.5882,2.4208 0.6063,4.1262 0.07,6.5774 -0.4173,1.9065 -0.8248,2.9329 -1.331,3.3529 -0.1591,0.1322 -0.4019,0.4576 -0.5394,0.7233 -0.3091,0.5975 -2.1417,2.0098 -3.3376,2.5719 -0.4905,0.2306 -1.242,0.6164 -1.67,0.8574 l -0.7783,0.4381 -9.9046,-0.01 c -7.9014,-0.01 -10.0412,-0.056 -10.5799,-0.2485 z m 32.5668,-0.053 c -0.232,-0.1923 -0.4392,-0.6675 -0.5493,-1.2598 -0.109,-0.5867 -0.1767,-6.7083 -0.1767,-15.9881 0,-16.2776 0,-16.3479 0.9365,-16.8469 0.2915,-0.1559 2.9092,-0.196 10.2777,-0.1579 l 9.8866,0.051 1.8276,0.782 c 1.647,0.7046 1.9753,0.9272 3.3196,2.2501 0.8205,0.8074 1.6119,1.7553 1.7587,2.1065 0.1468,0.3511 0.4617,0.9329 0.6999,1.2927 0.6152,0.9294 0.9733,3.035 0.9775,5.7489 0,3.1139 -0.3162,4.7552 -1.2811,6.5476 -0.9544,1.773 -2.1532,3.0946 -3.8142,4.2052 -1.9445,1.3003 -2.3707,1.367 -9.3605,1.4668 -3.327,0.047 -6.2346,0.04 -6.4615,-0.018 -0.2268,-0.057 -0.6235,-0.3145 -0.8815,-0.5724 -0.4417,-0.4415 -0.4691,-0.5667 -0.4691,-2.1393 0,-1.1785 0.085,-1.849 0.2879,-2.2769 0.5433,-1.1446 0.4145,-1.1238 6.9589,-1.1238 7.1924,0 7.3231,-0.024 8.8468,-1.6299 0.7726,-0.8142 1.0648,-1.2769 1.2429,-1.968 0.2857,-1.1093 0.2865,-3.9989 0,-4.983 -0.2799,-0.966 -1.4036,-2.21 -2.6442,-2.9275 l -1.0089,-0.5835 -7.682,-0.051 c -6.5082,-0.043 -7.7358,-0.012 -8.0342,0.2063 -0.3451,0.2522 -0.3539,0.5258 -0.4404,13.6514 -0.098,14.8603 -0.038,14.1713 -1.2462,14.4128 -1.1206,0.224 -2.5814,0.1278 -2.972,-0.1963 z"
         id="path5241"
         inkscape:connector-curvature="0" />
    </g>
  </g>
</svg>
