<?xml version="1.0" encoding="UTF-8" standalone="no"?>
<!-- Created with Inkscape (http://www.inkscape.org/) -->

<svg
   xmlns:dc="http://purl.org/dc/elements/1.1/"
   xmlns:cc="http://creativecommons.org/ns#"
   xmlns:rdf="http://www.w3.org/1999/02/22-rdf-syntax-ns#"
   xmlns:svg="http://www.w3.org/2000/svg"
   xmlns="http://www.w3.org/2000/svg"
   xmlns:sodipodi="http://sodipodi.sourceforge.net/DTD/sodipodi-0.dtd"
   xmlns:inkscape="http://www.inkscape.org/namespaces/inkscape"
   width="175.827"
   height="42.306999"
   viewBox="0 0 175.827 42.306998"
   id="svg9796"
   version="1.1"
   inkscape:version="0.91 r13725"
   sodipodi:docname="logo-grupo-raul-neves-light.svg">
  <defs
     id="defs9798" />
  <sodipodi:namedview
     id="base"
     pagecolor="#ffffff"
     bordercolor="#666666"
     borderopacity="1.0"
     inkscape:pageopacity="0.0"
     inkscape:pageshadow="2"
     inkscape:zoom="5.6"
     inkscape:cx="85.363627"
     inkscape:cy="41.941365"
     inkscape:document-units="px"
     inkscape:current-layer="layer1"
     showgrid="false"
     units="px"
     inkscape:window-width="1920"
     inkscape:window-height="1021"
     inkscape:window-x="0"
     inkscape:window-y="0"
     inkscape:window-maximized="1" />
  <metadata
     id="metadata9801">
    <rdf:RDF>
      <cc:Work
         rdf:about="">
        <dc:format>image/svg+xml</dc:format>
        <dc:type
           rdf:resource="http://purl.org/dc/dcmitype/StillImage" />
        <dc:title />
      </cc:Work>
    </rdf:RDF>
  </metadata>
  <g
     inkscape:label="Layer 1"
     inkscape:groupmode="layer"
     id="layer1"
     transform="translate(0,-1010.0552)">
    <g
       transform="matrix(1.1868161,0,0,1.1927115,-463.68436,3434.6112)"
       id="g9359">
      <ellipse
         style="color:#000000;clip-rule:nonzero;display:inline;overflow:visible;visibility:visible;opacity:1;isolation:auto;mix-blend-mode:normal;color-interpolation:sRGB;color-interpolation-filters:linearRGB;solid-color:#000000;solid-opacity:1;fill:#ff6600;fill-opacity:1;fill-rule:nonzero;stroke:none;stroke-width:1.5;stroke-linecap:round;stroke-linejoin:round;stroke-miterlimit:4;stroke-dasharray:none;stroke-dashoffset:0;stroke-opacity:1;color-rendering:auto;image-rendering:auto;shape-rendering:auto;text-rendering:auto;enable-background:accumulate"
         id="ellipse9361"
         cx="408.00119"
         cy="-2015.5903"
         rx="17.305126"
         ry="17.219589" />
      <g
         id="g9363"
         transform="translate(0.67650019,-1.054032)" />
    </g>
    <g
       transform="matrix(0.91900531,0,0,0.92357039,-343.37142,2887.2845)"
       id="g9365">
      <path
         style="fill:#ffffff;fill-rule:evenodd;stroke:none;stroke-width:1px;stroke-linecap:butt;stroke-linejoin:miter;stroke-opacity:1"
         d="m 397.30086,-2019.7927 0,10.5874 6.02404,0 0,-1.6104 -4.29213,0 0,-7.3857 4.31575,0 0,-1.6659 z"
         id="path9367"
         inkscape:connector-curvature="0"
         sodipodi:nodetypes="ccccccccc"
         transform="matrix(1.4251453,0,0,1.4251453,-185.18913,860.6665)" />
      <path
         sodipodi:nodetypes="ccccccccc"
         inkscape:connector-curvature="0"
         id="path9369"
         d="m 418.29455,-2021.4372 0,13.8998 -7.9087,0 0,-2.1143 5.63495,0 0,-9.6963 -5.66597,0 0,-2.1872 z"
         style="fill:#ffffff;fill-rule:evenodd;stroke:none;stroke-width:1px;stroke-linecap:butt;stroke-linejoin:miter;stroke-opacity:1"
         transform="matrix(1.4251453,0,0,1.4251453,-185.18913,860.6665)" />
      <circle
         style="color:#000000;clip-rule:nonzero;display:inline;overflow:visible;visibility:visible;opacity:1;isolation:auto;mix-blend-mode:normal;color-interpolation:sRGB;color-interpolation-filters:linearRGB;solid-color:#000000;solid-opacity:1;fill:#ffffff;fill-opacity:1;fill-rule:nonzero;stroke:none;stroke-width:1.20000005;stroke-linecap:round;stroke-linejoin:round;stroke-miterlimit:4;stroke-dasharray:none;stroke-dashoffset:0;stroke-opacity:1;color-rendering:auto;image-rendering:auto;shape-rendering:auto;text-rendering:auto;enable-background:accumulate"
         id="circle9371"
         cx="387.63312"
         cy="-2010.3405"
         r="2.4576662" />
      <text
         xml:space="preserve"
         style="font-style:normal;font-weight:normal;font-size:6.08555746px;line-height:125%;font-family:sans-serif;text-align:center;letter-spacing:0px;word-spacing:0px;text-anchor:middle;fill:#000000;fill-opacity:1;stroke:none;stroke-width:1px;stroke-linecap:butt;stroke-linejoin:miter;stroke-opacity:1"
         x="398.31503"
         y="-2008.1252"
         id="text9373"
         sodipodi:linespacing="125%"><tspan
           sodipodi:role="line"
           id="tspan9375"
           x="398.31503"
           y="-2008.1252"
           style="font-weight:bold;fill:#ffffff">REC</tspan></text>
    </g>
    <g
       id="g9377"
       transform="matrix(0.97800005,0,0,0.97800005,-368.88616,2994.3013)"
       style="fill:#ffffff">
      <g
         id="text9379"
         style="font-style:normal;font-variant:normal;font-weight:normal;font-stretch:normal;font-size:28.67970848px;line-height:125%;font-family:'Liberation Sans';-inkscape-font-specification:'Liberation Sans';letter-spacing:0px;word-spacing:0px;fill:#ffffff;fill-opacity:1;stroke:none;stroke-width:1px;stroke-linecap:butt;stroke-linejoin:miter;stroke-opacity:1"
         transform="scale(0.97148875,1.029348)">
        <path
           inkscape:connector-curvature="0"
           id="path9224"
           style="font-style:normal;font-variant:normal;font-weight:bold;font-stretch:normal;font-size:27.5px;font-family:'Trebuchet MS';-inkscape-font-specification:'Trebuchet MS';text-align:center;letter-spacing:0px;word-spacing:-2px;text-anchor:middle;fill:#ffffff;fill-opacity:1"
           d="m 448.86304,-1939.7365 -5.25025,-8.1237 q -0.79223,-0.014 -2.21557,-0.094 l 0,8.2177 -3.62549,0 0,-19.6716 q 0.29541,0 2.26929,-0.094 1.97387,-0.1074 3.18237,-0.1074 7.49267,0 7.49267,5.8008 0,1.7456 -1.03393,3.1824 -1.03394,1.4367 -2.60498,2.0275 l 5.81421,8.8623 -4.02832,0 z m -7.46582,-16.6369 0,5.4651 q 0.96679,0.081 1.47705,0.081 2.18872,0 3.1958,-0.6176 1.02051,-0.6177 1.02051,-2.4036 0,-1.4502 -1.08765,-2.0276 -1.08765,-0.5774 -3.42407,-0.5774 -0.56397,0 -1.18164,0.081 z" />
        <path
           inkscape:connector-curvature="0"
           id="path9226"
           style="font-style:normal;font-variant:normal;font-weight:bold;font-stretch:normal;font-size:27.5px;font-family:'Trebuchet MS';-inkscape-font-specification:'Trebuchet MS';text-align:center;letter-spacing:0px;word-spacing:-2px;text-anchor:middle;fill:#ffffff;fill-opacity:1"
           d="m 462.38477,-1941.1732 q -0.45655,0.7519 -1.5979,1.2353 -1.12793,0.47 -2.36329,0.47 -2.32299,0 -3.65234,-1.1548 -1.32935,-1.1682 -1.32935,-3.3032 0,-2.4976 1.86646,-3.9075 1.87988,-1.4099 5.33081,-1.4099 0.59082,0 1.39648,0.2014 0,-2.5378 -3.20922,-2.5378 -1.89331,0 -3.16895,0.6311 l -0.7251,-2.605 q 1.73218,-0.8325 4.12232,-0.8325 3.28979,0 4.82055,1.5039 1.53077,1.4905 1.53077,5.6665 l 0,3.075 q 0,2.8735 1.15478,3.612 -0.41626,0.7251 -0.92651,0.8862 -0.51026,0.1746 -1.16822,0.1746 -0.72509,0 -1.30249,-0.5371 -0.57739,-0.5371 -0.7788,-1.1682 z m -0.32227,-5.3308 q -0.85938,-0.1746 -1.28906,-0.1746 -3.97461,0 -3.97461,2.605 0,1.9336 2.24243,1.9336 3.02124,0 3.02124,-3.0213 l 0,-1.3427 z" />
        <path
           inkscape:connector-curvature="0"
           id="path9228"
           style="font-style:normal;font-variant:normal;font-weight:bold;font-stretch:normal;font-size:27.5px;font-family:'Trebuchet MS';-inkscape-font-specification:'Trebuchet MS';text-align:center;letter-spacing:0px;word-spacing:-2px;text-anchor:middle;fill:#ffffff;fill-opacity:1"
           d="m 478.31006,-1939.723 0,-1.2085 q -0.71167,0.6042 -1.96045,1.0339 -1.24878,0.4297 -2.29614,0.4297 -5.00855,0 -5.00855,-5.3174 l 0,-9.3323 3.35694,0 0,9.0772 q 0,2.7661 2.48413,2.7661 1.14135,0 2.12158,-0.5908 0.98022,-0.5908 1.30249,-1.3696 l 0,-9.8829 3.35693,0 0,14.3946 -3.35693,0 z" />
        <path
           inkscape:connector-curvature="0"
           id="path9230"
           style="font-style:normal;font-variant:normal;font-weight:bold;font-stretch:normal;font-size:27.5px;font-family:'Trebuchet MS';-inkscape-font-specification:'Trebuchet MS';text-align:center;letter-spacing:0px;word-spacing:-2px;text-anchor:middle;fill:#ffffff;fill-opacity:1"
           d="m 485.89673,-1959.4752 3.35693,-0.8057 0,16.167 q 0,2.6587 1.58447,3.169 -0.7788,1.477 -2.65869,1.477 -2.28271,0 -2.28271,-3.1689 l 0,-16.8384 z" />
        <path
           inkscape:connector-curvature="0"
           id="path9232"
           style="font-style:normal;font-variant:normal;font-weight:bold;font-stretch:normal;font-size:27.5px;font-family:'Trebuchet MS';-inkscape-font-specification:'Trebuchet MS';text-align:center;letter-spacing:0px;word-spacing:-2px;text-anchor:middle;fill:#ffffff;fill-opacity:1"
           d="m 512.80664,-1939.4679 -9.54712,-12.4475 0,12.1924 -3.35693,0 0,-19.6851 1.67846,0 9.292,11.8701 0,-11.8701 3.35693,0 0,19.9402 -1.42334,0 z" />
        <path
           inkscape:connector-curvature="0"
           id="path9234"
           style="font-style:normal;font-variant:normal;font-weight:bold;font-stretch:normal;font-family:'Trebuchet MS';-inkscape-font-specification:'Trebuchet MS Bold';letter-spacing:0px;word-spacing:-2px;fill:#ffffff;fill-opacity:1"
           d="m 530.90723,-1945.8998 -10.27222,0 q 0.094,1.7188 1.18164,2.6721 1.08765,0.9534 2.92725,0.9534 2.29614,0 3.49121,-1.1951 l 1.30249,2.5647 q -1.77246,1.4368 -5.29053,1.4368 -3.28979,0 -5.20996,-1.9202 -1.90674,-1.9336 -1.90674,-5.3845 0,-3.3972 2.09473,-5.5054 2.10815,-2.1081 5.04883,-2.1081 3.12866,0 5.02197,1.8664 1.89331,1.8665 1.89331,4.7535 0,0.6176 -0.28198,1.8664 z m -10.15137,-2.5244 7.06299,0 q -0.34912,-3.1555 -3.49121,-3.1555 -2.87354,0 -3.57178,3.1555 z" />
        <path
           inkscape:connector-curvature="0"
           id="path9236"
           style="font-style:normal;font-variant:normal;font-weight:bold;font-stretch:normal;font-size:27.5px;font-family:'Trebuchet MS';-inkscape-font-specification:'Trebuchet MS';text-align:center;letter-spacing:0px;word-spacing:-2px;text-anchor:middle;fill:#ffffff;fill-opacity:1"
           d="m 539.82324,-1939.4679 -1.20849,0 -6.49903,-14.6497 3.6792,0 3.4375,8.7818 3.69263,-8.7818 3.55835,0 -6.66016,14.6497 z" />
        <path
           inkscape:connector-curvature="0"
           id="path9238"
           style="font-style:normal;font-variant:normal;font-weight:bold;font-stretch:normal;font-size:27.5px;font-family:'Trebuchet MS';-inkscape-font-specification:'Trebuchet MS';text-align:center;letter-spacing:0px;word-spacing:-2px;text-anchor:middle;fill:#ffffff;fill-opacity:1"
           d="m 561.2002,-1945.8998 -10.27222,0 q 0.094,1.7188 1.18164,2.6721 1.08765,0.9534 2.92725,0.9534 2.29614,0 3.49121,-1.1951 l 1.30249,2.5647 q -1.77246,1.4368 -5.29053,1.4368 -3.2898,0 -5.20996,-1.9202 -1.90674,-1.9336 -1.90674,-5.3845 0,-3.3972 2.09473,-5.5054 2.10815,-2.1081 5.04882,-2.1081 3.12867,0 5.02198,1.8664 1.89331,1.8665 1.89331,4.7535 0,0.6176 -0.28198,1.8664 z m -10.15137,-2.5244 7.06299,0 q -0.34912,-3.1555 -3.49121,-3.1555 -2.87354,0 -3.57178,3.1555 z" />
        <path
           inkscape:connector-curvature="0"
           id="path9240"
           style="font-style:normal;font-variant:normal;font-weight:bold;font-stretch:normal;font-size:27.5px;font-family:'Trebuchet MS';-inkscape-font-specification:'Trebuchet MS';text-align:center;letter-spacing:0px;word-spacing:-2px;text-anchor:middle;fill:#ffffff;fill-opacity:1"
           d="m 563.26807,-1940.663 1.19506,-2.6721 q 1.50391,1.1951 3.39722,1.1951 1.96045,0 1.96045,-1.3965 0,-0.8191 -0.59082,-1.3428 -0.59082,-0.5237 -2.29614,-1.2353 -3.71948,-1.5442 -3.71948,-4.3238 0,-1.8664 1.42334,-2.9003 1.42334,-1.0474 3.63891,-1.0474 2.24243,0 4.21631,1.0071 l -0.9668,2.605 q -1.10107,-0.94 -3.06152,-0.94 -1.75903,0 -1.75903,1.3965 0,0.5505 0.57739,0.9936 0.57739,0.4432 2.4707,1.1951 1.89331,0.7385 2.72583,1.7993 0.83252,1.0608 0.83252,2.5647 0,2.0008 -1.49048,3.1555 -1.47705,1.1414 -4.02832,1.1414 -1.43676,0 -2.30957,-0.2417 -0.85937,-0.2283 -2.21557,-0.9534 z" />
      </g>
      <g
         id="text9385"
         style="font-style:normal;font-weight:normal;font-size:9.37473106px;line-height:125%;font-family:sans-serif;text-align:center;letter-spacing:0px;word-spacing:0px;text-anchor:middle;fill:#ffffff;fill-opacity:1;stroke:none;stroke-width:1px;stroke-linecap:butt;stroke-linejoin:miter;stroke-opacity:1"
         transform="scale(1.0089517,0.99112773)">
        <path
           inkscape:connector-curvature="0"
           id="path9170"
           style="font-style:normal;font-variant:normal;font-weight:bold;font-stretch:normal;font-size:10px;font-family:'Trebuchet MS';-inkscape-font-specification:'Trebuchet MS Bold';fill:#ffffff"
           d="m 427.14203,-2046.2672 -0.53223,1.0205 q -0.22461,-0.2002 -0.69336,-0.3955 -0.46875,-0.2002 -0.80566,-0.2002 -1.05469,0 -1.66504,0.7178 -0.61035,0.7129 -0.61035,1.914 0,1.1426 0.5957,1.8262 0.60059,0.6836 1.63086,0.6836 0.67871,0 1.11816,-0.3711 l 0,-1.4062 -0.99121,0 0,-1.084 2.26075,0 0,3.2031 q -0.45411,0.3711 -1.17188,0.581 -0.71289,0.2051 -1.4209,0.2051 -1.53808,0 -2.4414,-1.0058 -0.89844,-1.0108 -0.89844,-2.6661 0,-1.6552 0.98144,-2.6904 0.98145,-1.0351 2.64161,-1.0351 1.17675,0 2.00195,0.7031 z" />
        <path
           inkscape:connector-curvature="0"
           id="path9172"
           style="font-style:normal;font-variant:normal;font-weight:bold;font-stretch:normal;font-size:10px;font-family:'Trebuchet MS';-inkscape-font-specification:'Trebuchet MS Bold';fill:#ffffff"
           d="m 432.61078,-2039.6949 -1.90918,-2.9541 q -0.28809,0 -0.80566,-0.034 l 0,2.9883 -1.31836,0 0,-7.1534 q 0.10742,0 0.82519,-0.034 0.71777,-0.039 1.15723,-0.039 2.72461,0 2.72461,2.1094 0,0.6347 -0.37598,1.1572 -0.37598,0.5225 -0.94727,0.7373 l 2.11426,3.2227 -1.46484,0 z m -2.71484,-6.0499 0,1.9874 q 0.35156,0.029 0.5371,0.029 0.7959,0 1.16211,-0.2247 0.3711,-0.2246 0.3711,-0.874 0,-0.5273 -0.39551,-0.7373 -0.39551,-0.2099 -1.24512,-0.2099 -0.20508,0 -0.42968,0.029 z" />
        <path
           inkscape:connector-curvature="0"
           id="path9174"
           style="font-style:normal;font-variant:normal;font-weight:bold;font-stretch:normal;font-size:10px;font-family:'Trebuchet MS';-inkscape-font-specification:'Trebuchet MS Bold';fill:#ffffff"
           d="m 434.69086,-2046.8483 1.26953,0 0,4.8487 q 0,0.5761 0.35156,0.9375 0.35156,0.3613 0.9668,0.3613 0.68847,0 1.06933,-0.3516 0.38575,-0.3564 0.38575,-0.9716 l 0,-4.8243 1.26953,0 0,4.9219 q 0,1.1035 -0.74219,1.7285 -0.73731,0.625 -1.97266,0.625 -1.24511,0 -1.92382,-0.6103 -0.67383,-0.6104 -0.67383,-1.7481 l 0,-4.917 z" />
        <path
           inkscape:connector-curvature="0"
           id="path9176"
           style="font-style:normal;font-variant:normal;font-weight:bold;font-stretch:normal;font-size:10px;font-family:'Trebuchet MS';-inkscape-font-specification:'Trebuchet MS Bold';fill:#ffffff"
           d="m 442.73773,-2042.3268 0,2.6319 -1.26953,0 0,-7.1485 q 1.26953,-0.054 1.48438,-0.054 1.69433,0 2.47558,0.5225 0.78613,0.5175 0.78613,1.6211 0,2.4609 -2.90039,2.4609 -0.21484,0 -0.57617,-0.034 z m 0,-3.418 0,2.2901 q 0.32227,0.034 0.50781,0.034 0.86915,0 1.26954,-0.2881 0.40039,-0.293 0.40039,-0.9473 0,-1.1133 -1.792,-1.1133 -0.20019,0 -0.38574,0.024 z" />
        <path
           inkscape:connector-curvature="0"
           id="path9178"
           style="font-style:normal;font-variant:normal;font-weight:bold;font-stretch:normal;font-size:10px;font-family:'Trebuchet MS';-inkscape-font-specification:'Trebuchet MS Bold';fill:#ffffff"
           d="m 447.00531,-2043.3326 q 0,-1.5284 0.83496,-2.583 0.83984,-1.0596 2.24121,-1.0596 1.54297,0 2.3584,0.957 0.81543,0.957 0.81543,2.6856 0,1.7285 -0.85449,2.7441 -0.84961,1.0156 -2.41699,1.0156 -1.44043,0 -2.21192,-1.0058 -0.7666,-1.0059 -0.7666,-2.7539 z m 1.31836,0 q 0,1.2548 0.4248,1.9433 0.42481,0.6885 1.23536,0.6885 0.95214,0 1.45019,-0.6738 0.50293,-0.6739 0.50293,-1.958 0,-2.5147 -1.85547,-2.5147 -0.84961,0 -1.30371,0.6836 -0.4541,0.6787 -0.4541,1.8311 z" />
      </g>
      <g
         id="text9389"
         style="font-style:normal;font-weight:normal;font-size:5.9383831px;line-height:125%;font-family:sans-serif;text-align:center;letter-spacing:0px;word-spacing:0px;text-anchor:middle;fill:#ffffff;fill-opacity:1;stroke:none;stroke-width:1px;stroke-linecap:butt;stroke-linejoin:miter;stroke-opacity:1">
        <path
           inkscape:connector-curvature="0"
           id="path9181"
           style="font-style:normal;font-variant:normal;font-weight:bold;font-stretch:normal;font-size:6.25px;font-family:'Trebuchet MS';-inkscape-font-specification:'Trebuchet MS Bold';fill:#ffffff"
           d="m 428.5679,-1991.186 -0.32654,0.6561 q -0.2655,-0.2655 -0.85449,-0.2655 -0.55847,0 -0.91553,0.47 -0.35705,0.4669 -0.35705,1.184 0,0.7172 0.32959,1.1383 0.33264,0.4212 0.88501,0.4212 0.63171,0 0.98877,-0.4517 l 0.36926,0.6409 q -0.48523,0.5157 -1.42212,0.5157 -0.93689,0 -1.45569,-0.6164 -0.5188,-0.6165 -0.5188,-1.6815 0,-0.9918 0.57373,-1.6571 0.57679,-0.6684 1.474,-0.6684 0.76905,0 1.22986,0.3144 z" />
        <path
           inkscape:connector-curvature="0"
           id="path9183"
           style="font-style:normal;font-variant:normal;font-weight:bold;font-stretch:normal;font-size:6.25px;font-family:'Trebuchet MS';-inkscape-font-specification:'Trebuchet MS Bold';fill:#ffffff"
           d="m 429.11111,-1989.2268 q 0,-0.9552 0.52186,-1.6144 0.5249,-0.6622 1.40075,-0.6622 0.96436,0 1.474,0.5981 0.50964,0.5982 0.50964,1.6785 0,1.0803 -0.53405,1.7151 -0.53101,0.6347 -1.51062,0.6347 -0.90027,0 -1.38245,-0.6286 -0.47913,-0.6287 -0.47913,-1.7212 z m 0.82398,0 q 0,0.7843 0.2655,1.2146 0.2655,0.4303 0.7721,0.4303 0.59509,0 0.90637,-0.4212 0.31433,-0.4211 0.31433,-1.2237 0,-1.5717 -1.15967,-1.5717 -0.531,0 -0.81482,0.4273 -0.28381,0.4242 -0.28381,1.1444 z" />
        <path
           inkscape:connector-curvature="0"
           id="path9185"
           style="font-style:normal;font-variant:normal;font-weight:bold;font-stretch:normal;font-size:6.25px;font-family:'Trebuchet MS';-inkscape-font-specification:'Trebuchet MS Bold';fill:#ffffff"
           d="m 437.88797,-1986.9502 -0.76904,0 -0.46387,-2.4109 -0.90027,2.4689 -0.28381,0 -0.90027,-2.4689 -0.48218,2.4109 -0.76599,0 0.90027,-4.4739 0.42114,0 0.96741,3.0121 0.94604,-3.0121 0.41809,0 0.91248,4.4739 z" />
        <path
           inkscape:connector-curvature="0"
           id="path9187"
           style="font-style:normal;font-variant:normal;font-weight:bold;font-stretch:normal;font-size:6.25px;font-family:'Trebuchet MS';-inkscape-font-specification:'Trebuchet MS Bold';fill:#ffffff"
           d="m 438.38235,-1991.4241 0.79346,0 0,3.0304 q 0,0.3601 0.21973,0.586 0.21972,0.2258 0.60425,0.2258 0.43029,0 0.66833,-0.2197 0.24109,-0.2228 0.24109,-0.6073 l 0,-3.0152 0.79346,0 0,3.0762 q 0,0.6897 -0.46387,1.0803 -0.46082,0.3906 -1.23291,0.3906 -0.7782,0 -1.20239,-0.3814 -0.42115,-0.3815 -0.42115,-1.0926 l 0,-3.0731 z" />
        <path
           inkscape:connector-curvature="0"
           id="path9189"
           style="font-style:normal;font-variant:normal;font-weight:bold;font-stretch:normal;font-size:6.25px;font-family:'Trebuchet MS';-inkscape-font-specification:'Trebuchet MS Bold';fill:#ffffff"
           d="m 445.55093,-1986.8922 -2.1698,-2.829 0,2.771 -0.76294,0 0,-4.4739 0.38147,0 2.11182,2.6978 0,-2.6978 0.76294,0 0,4.5319 -0.32349,0 z" />
        <path
           inkscape:connector-curvature="0"
           id="path9191"
           style="font-style:normal;font-variant:normal;font-weight:bold;font-stretch:normal;font-size:6.25px;font-family:'Trebuchet MS';-inkscape-font-specification:'Trebuchet MS Bold';fill:#ffffff"
           d="m 446.80826,-1986.9532 0,-4.4709 0.79346,0 0,4.4709 -0.79346,0 z" />
        <path
           inkscape:connector-curvature="0"
           id="path9193"
           style="font-style:normal;font-variant:normal;font-weight:bold;font-stretch:normal;font-size:6.25px;font-family:'Trebuchet MS';-inkscape-font-specification:'Trebuchet MS Bold';fill:#ffffff"
           d="m 451.60257,-1991.186 -0.32654,0.6561 q -0.2655,-0.2655 -0.85449,-0.2655 -0.55847,0 -0.91553,0.47 -0.35705,0.4669 -0.35705,1.184 0,0.7172 0.32959,1.1383 0.33264,0.4212 0.88501,0.4212 0.63171,0 0.98877,-0.4517 l 0.36926,0.6409 q -0.48523,0.5157 -1.42212,0.5157 -0.93689,0 -1.45569,-0.6164 -0.5188,-0.6165 -0.5188,-1.6815 0,-0.9918 0.57373,-1.6571 0.57678,-0.6684 1.474,-0.6684 0.76904,0 1.22986,0.3144 z" />
        <path
           inkscape:connector-curvature="0"
           id="path9195"
           style="font-style:normal;font-variant:normal;font-weight:bold;font-stretch:normal;font-size:6.25px;font-family:'Trebuchet MS';-inkscape-font-specification:'Trebuchet MS Bold';fill:#ffffff"
           d="m 454.96866,-1986.9532 -0.32654,-0.9064 -1.53198,0 -0.31128,0.9064 -0.88196,0 1.78223,-4.5319 0.3479,0 1.79748,4.5319 -0.87585,0 z m -1.09558,-3.1647 -0.53711,1.651 1.07422,0 -0.53711,-1.651 z" />
        <path
           inkscape:connector-curvature="0"
           id="path9197"
           style="font-style:normal;font-variant:normal;font-weight:bold;font-stretch:normal;font-size:6.25px;font-family:'Trebuchet MS';-inkscape-font-specification:'Trebuchet MS Bold';fill:#ffffff"
           d="m 459.37845,-1991.186 -0.32654,0.6561 q -0.2655,-0.2655 -0.85449,-0.2655 -0.55847,0 -0.91553,0.47 -0.35705,0.4669 -0.35705,1.184 0,0.7172 0.32959,1.1383 0.33264,0.4212 0.885,0.4212 0.63172,0 0.98877,-0.4517 l 0.36927,0.6409 q -0.48523,0.5157 -1.42212,0.5157 -0.93689,0 -1.45569,-0.6164 -0.5188,-0.6165 -0.5188,-1.6815 0,-0.9918 0.57373,-1.6571 0.57678,-0.6684 1.474,-0.6684 0.76904,0 1.22986,0.3144 z m -1.95007,5.5297 -0.12513,-0.3875 q 0.10376,0.027 0.21363,0.027 0.39978,0 0.39978,-0.2777 0,-0.1007 -0.0641,-0.1953 -0.061,-0.095 -0.15564,-0.119 l 0.2594,-0.2716 q 0.54932,0.1129 0.54932,0.6317 0,0.293 -0.21668,0.4578 -0.21667,0.1678 -0.56152,0.1678 -0.15564,0 -0.29907,-0.034 z" />
        <path
           inkscape:connector-curvature="0"
           id="path9199"
           style="font-style:normal;font-variant:normal;font-weight:bold;font-stretch:normal;font-size:6.25px;font-family:'Trebuchet MS';-inkscape-font-specification:'Trebuchet MS Bold';fill:#ffffff"
           d="m 462.74454,-1986.9532 -0.32654,-0.9064 -1.53198,0 -0.31128,0.9064 -0.88196,0 1.78223,-4.5319 0.3479,0 1.79748,4.5319 -0.87585,0 z m -1.09558,-3.1647 -0.53711,1.651 1.07422,0 -0.53711,-1.651 z m -0.57984,-1.5808 -0.4425,0 q 0.058,-0.3479 0.23193,-0.5646 0.177,-0.2197 0.4364,-0.2197 0.23804,0 0.47608,0.119 0.23803,0.116 0.30517,0.116 0.18616,0 0.26551,-0.235 l 0.45166,0 q -0.11597,0.4547 -0.28382,0.6195 -0.16784,0.1648 -0.42114,0.1648 -0.18921,0 -0.43335,-0.116 -0.24109,-0.119 -0.31433,-0.119 -0.15869,0 -0.27161,0.235 z" />
        <path
           inkscape:connector-curvature="0"
           id="path9201"
           style="font-style:normal;font-variant:normal;font-weight:bold;font-stretch:normal;font-size:6.25px;font-family:'Trebuchet MS';-inkscape-font-specification:'Trebuchet MS Bold';fill:#ffffff"
           d="m 463.87674,-1989.2268 q 0,-0.9552 0.52185,-1.6144 0.5249,-0.6622 1.40076,-0.6622 0.96435,0 1.474,0.5981 0.50964,0.5982 0.50964,1.6785 0,1.0803 -0.53406,1.7151 -0.531,0.6347 -1.51062,0.6347 -0.90027,0 -1.38244,-0.6286 -0.47913,-0.6287 -0.47913,-1.7212 z m 0.82397,0 q 0,0.7843 0.26551,1.2146 0.2655,0.4303 0.77209,0.4303 0.59509,0 0.90637,-0.4212 0.31433,-0.4211 0.31433,-1.2237 0,-1.5717 -1.15966,-1.5717 -0.53101,0 -0.81482,0.4273 -0.28382,0.4242 -0.28382,1.1444 z" />
        <path
           inkscape:connector-curvature="0"
           id="path9203"
           style="font-style:normal;font-variant:normal;font-weight:bold;font-stretch:normal;font-size:6.25px;font-family:'Trebuchet MS';-inkscape-font-specification:'Trebuchet MS Bold';fill:#ffffff"
           d="m 473.23648,-1988.354 -2.33459,0 q 0.0214,0.3906 0.26855,0.6073 0.24719,0.2167 0.66528,0.2167 0.52185,0 0.79346,-0.2716 l 0.29602,0.5828 q -0.40283,0.3266 -1.20239,0.3266 -0.74768,0 -1.18408,-0.4364 -0.43335,-0.4395 -0.43335,-1.2238 0,-0.7721 0.47607,-1.2512 0.47913,-0.4791 1.14746,-0.4791 0.71106,0 1.14136,0.4242 0.4303,0.4242 0.4303,1.0803 0,0.1404 -0.0641,0.4242 z m -2.30713,-0.5737 1.60523,0 q -0.0794,-0.7172 -0.79346,-0.7172 -0.65308,0 -0.81177,0.7172 z" />
        <path
           inkscape:connector-curvature="0"
           id="path9205"
           style="font-style:normal;font-variant:normal;font-weight:bold;font-stretch:normal;font-size:6.25px;font-family:'Trebuchet MS';-inkscape-font-specification:'Trebuchet MS Bold';fill:#ffffff"
           d="m 480.00223,-1986.9502 -0.76905,0 -0.46386,-2.4109 -0.90027,2.4689 -0.28381,0 -0.90027,-2.4689 -0.48218,2.4109 -0.76599,0 0.90027,-4.4739 0.42114,0 0.96741,3.0121 0.94604,-3.0121 0.41809,0 0.91248,4.4739 z" />
        <path
           inkscape:connector-curvature="0"
           id="path9207"
           style="font-style:normal;font-variant:normal;font-weight:bold;font-stretch:normal;font-size:6.25px;font-family:'Trebuchet MS';-inkscape-font-specification:'Trebuchet MS Bold';fill:#ffffff"
           d="m 483.10587,-1986.9532 -0.32654,-0.9064 -1.53199,0 -0.31127,0.9064 -0.88196,0 1.78222,-4.5319 0.3479,0 1.79749,4.5319 -0.87585,0 z m -1.09559,-3.1647 -0.5371,1.651 1.07421,0 -0.53711,-1.651 z" />
        <path
           inkscape:connector-curvature="0"
           id="path9209"
           style="font-style:normal;font-variant:normal;font-weight:bold;font-stretch:normal;font-size:6.25px;font-family:'Trebuchet MS';-inkscape-font-specification:'Trebuchet MS Bold';fill:#ffffff"
           d="m 486.97244,-1986.9532 -1.19323,-1.8464 q -0.18006,0 -0.50354,-0.021 l 0,1.8677 -0.82398,0 0,-4.4709 q 0.0671,0 0.51575,-0.021 0.44861,-0.024 0.72326,-0.024 1.70289,0 1.70289,1.3183 0,0.3967 -0.23499,0.7233 -0.23499,0.3265 -0.59204,0.4608 l 1.32141,2.0142 -0.91553,0 z m -1.69677,-3.7812 0,1.2421 q 0.21972,0.018 0.33569,0.018 0.49744,0 0.72632,-0.1404 0.23193,-0.1404 0.23193,-0.5462 0,-0.3296 -0.24719,-0.4609 -0.24719,-0.1312 -0.7782,-0.1312 -0.12817,0 -0.26855,0.018 z" />
        <path
           inkscape:connector-curvature="0"
           id="path9211"
           style="font-style:normal;font-variant:normal;font-weight:bold;font-stretch:normal;font-size:6.25px;font-family:'Trebuchet MS';-inkscape-font-specification:'Trebuchet MS Bold';fill:#ffffff"
           d="m 490.8085,-1986.9532 -1.24511,-1.9043 -0.49744,0.6805 0,1.2238 -0.79346,0 0,-4.4709 0.79346,0 0,2.1393 1.51977,-2.1393 0.90332,0 -1.40075,1.9532 1.66931,2.5177 -0.9491,0 z" />
        <path
           inkscape:connector-curvature="0"
           id="path9213"
           style="font-style:normal;font-variant:normal;font-weight:bold;font-stretch:normal;font-size:6.25px;font-family:'Trebuchet MS';-inkscape-font-specification:'Trebuchet MS Bold';fill:#ffffff"
           d="m 492.92337,-1990.7191 0,1.0467 1.47705,0 0,0.6745 -1.47705,0 0,1.3397 2.02637,0 0,0.705 -2.81983,0 0,-4.4709 2.8534,0 0,0.705 -2.05994,0 z" />
        <path
           inkscape:connector-curvature="0"
           id="path9215"
           style="font-style:normal;font-variant:normal;font-weight:bold;font-stretch:normal;font-size:6.25px;font-family:'Trebuchet MS';-inkscape-font-specification:'Trebuchet MS Bold';fill:#ffffff"
           d="m 497.50101,-1990.7191 0,3.7659 -0.79346,0 0,-3.7659 -1.42212,0 0,-0.705 3.70178,0 0,0.705 -1.4862,0 z" />
        <path
           inkscape:connector-curvature="0"
           id="path9217"
           style="font-style:normal;font-variant:normal;font-weight:bold;font-stretch:normal;font-size:6.25px;font-family:'Trebuchet MS';-inkscape-font-specification:'Trebuchet MS Bold';fill:#ffffff"
           d="m 499.51822,-1986.9532 0,-4.4709 0.79346,0 0,4.4709 -0.79346,0 z" />
        <path
           inkscape:connector-curvature="0"
           id="path9219"
           style="font-style:normal;font-variant:normal;font-weight:bold;font-stretch:normal;font-size:6.25px;font-family:'Trebuchet MS';-inkscape-font-specification:'Trebuchet MS Bold';fill:#ffffff"
           d="m 504.1813,-1986.8922 -2.16979,-2.829 0,2.771 -0.76294,0 0,-4.4739 0.38147,0 2.11181,2.6978 0,-2.6978 0.76294,0 0,4.5319 -0.32349,0 z" />
        <path
           inkscape:connector-curvature="0"
           id="path9221"
           style="font-style:normal;font-variant:normal;font-weight:bold;font-stretch:normal;font-size:6.25px;font-family:'Trebuchet MS';-inkscape-font-specification:'Trebuchet MS Bold';fill:#ffffff"
           d="m 508.72537,-1991.0609 -0.33264,0.6378 q -0.14038,-0.1251 -0.43335,-0.2472 -0.29297,-0.1251 -0.50354,-0.1251 -0.65918,0 -1.04065,0.4486 -0.38147,0.4456 -0.38147,1.1963 0,0.7141 0.37232,1.1413 0.37536,0.4273 1.01928,0.4273 0.4242,0 0.69886,-0.2319 l 0,-0.8789 -0.61951,0 0,-0.6775 1.41296,0 0,2.0019 q -0.28381,0.2319 -0.73242,0.3632 -0.44556,0.1281 -0.88806,0.1281 -0.9613,0 -1.52588,-0.6286 -0.56152,-0.6317 -0.56152,-1.6663 0,-1.0345 0.6134,-1.6815 0.6134,-0.647 1.651,-0.647 0.73548,0 1.25122,0.4395 z" />
      </g>
    </g>
  </g>
</svg>
