<?xml version="1.0" encoding="UTF-8" standalone="no"?>
<!-- Created with Inkscape (http://www.inkscape.org/) -->

<svg
   xmlns:dc="http://purl.org/dc/elements/1.1/"
   xmlns:cc="http://creativecommons.org/ns#"
   xmlns:rdf="http://www.w3.org/1999/02/22-rdf-syntax-ns#"
   xmlns:svg="http://www.w3.org/2000/svg"
   xmlns="http://www.w3.org/2000/svg"
   xmlns:xlink="http://www.w3.org/1999/xlink"
   xmlns:sodipodi="http://sodipodi.sourceforge.net/DTD/sodipodi-0.dtd"
   xmlns:inkscape="http://www.inkscape.org/namespaces/inkscape"
   width="210.733"
   height="218.36"
   viewBox="0 0 210.733 218.36"
   id="svg6127"
   version="1.1"
   inkscape:version="0.91 r13725"
   sodipodi:docname="logo-pw.svg">
  <defs
     id="defs6129">
    <linearGradient
       inkscape:collect="always"
       id="linearGradient4216">
      <stop
         style="stop-color:#1880c7;stop-opacity:1"
         offset="0"
         id="stop4218" />
      <stop
         id="stop4269"
         offset="0.7055068"
         style="stop-color:#183fc7;stop-opacity:1" />
      <stop
         style="stop-color:#0e2c62;stop-opacity:1;"
         offset="0.89075774"
         id="stop4271" />
      <stop
         id="stop4275"
         offset="0.98883796"
         style="stop-color:#0e2a57;stop-opacity:1;" />
      <stop
         style="stop-color:#103e96;stop-opacity:1"
         offset="1"
         id="stop4220" />
    </linearGradient>
    <radialGradient
       inkscape:collect="always"
       xlink:href="#linearGradient4216"
       id="radialGradient4245"
       gradientUnits="userSpaceOnUse"
       gradientTransform="matrix(0.23097998,0.31475662,-0.20490307,0.15027926,93.344776,606.54147)"
       cx="355.91025"
       cy="304.03903"
       fx="355.91025"
       fy="304.03903"
       r="256" />
  </defs>
  <sodipodi:namedview
     id="base"
     pagecolor="#ffffff"
     bordercolor="#666666"
     borderopacity="1.0"
     inkscape:pageopacity="0.0"
     inkscape:pageshadow="2"
     inkscape:zoom="1.979899"
     inkscape:cx="-51.870843"
     inkscape:cy="181.42365"
     inkscape:document-units="px"
     inkscape:current-layer="layer1"
     showgrid="false"
     units="px"
     inkscape:window-width="1920"
     inkscape:window-height="1021"
     inkscape:window-x="0"
     inkscape:window-y="0"
     inkscape:window-maximized="1" />
  <metadata
     id="metadata6132">
    <rdf:RDF>
      <cc:Work
         rdf:about="">
        <dc:format>image/svg+xml</dc:format>
        <dc:type
           rdf:resource="http://purl.org/dc/dcmitype/StillImage" />
        <dc:title />
      </cc:Work>
    </rdf:RDF>
  </metadata>
  <g
     inkscape:label="Layer 1"
     inkscape:groupmode="layer"
     id="layer1"
     transform="translate(0,-834.00215)">
    <g
       id="g7920"
       transform="matrix(1.2639879,0,0,1.2639879,-69.916211,-95.915941)">
      <path
         inkscape:export-ydpi="90"
         inkscape:export-xdpi="90"
         inkscape:connector-curvature="0"
         id="path4264-3"
         d="m 138.78537,736.26566 a 61.23586,61.004397 0 0 0 -61.235819,61.00486 61.23586,61.004397 0 0 0 61.235819,61.00393 61.23586,61.004397 0 0 0 60.80794,-54.11096 l -2.72608,10.31106 -14.68012,0 -7.09576,-28.80013 -7.05834,28.80013 -14.68012,0 -11.07569,-41.89119 13.06551,0 7.05834,28.87507 7.09612,-28.87507 11.22578,0 7.05834,28.5758 7.03306,-28.3212 a 61.23586,61.004397 0 0 0 -56.02898,-36.5723 z m -16.33214,35.3082 c 4.30517,0 7.64676,1.40839 10.02458,4.22607 2.37782,2.79275 3.56702,6.72041 3.56702,11.78227 0,4.13926 -0.73865,8.09152 -2.21545,11.85674 -1.47673,3.74029 -3.604,7.09384 -6.38231,10.06113 -1.85223,1.96989 -3.94237,3.47853 -6.27014,4.52581 -2.32784,1.02235 -4.7807,1.53359 -7.3588,1.53359 -2.97853,0 -5.48173,-0.61103 -7.50918,-1.83286 -2.02738,-1.24676 -3.54131,-3.09166 -4.5425,-5.53531 l -4.317807,22.21714 -6.908331,0 11.300888,-57.82508 6.90841,0 -1.23904,6.35867 c 1.85223,-2.41873 4.02977,-4.25133 6.53276,-5.49809 2.52805,-1.24676 5.33128,-1.87008 8.4099,-1.87008 z m -2.85313,5.75965 c -2.05245,0 -4.01728,0.524 -5.89457,1.57128 -1.85216,1.04728 -3.50419,2.56822 -4.95592,4.56304 -1.42675,1.96989 -2.56561,4.35108 -3.41665,7.14384 -0.85096,2.79274 -1.2763,5.56079 -1.2763,8.30367 0,3.49094 0.80084,6.1838 2.40274,8.07888 1.60189,1.87014 3.87961,2.80512 6.83314,2.80512 2.17761,0 4.19235,-0.51123 6.04458,-1.53358 1.87722,-1.02235 3.47941,-2.50592 4.80598,-4.45088 1.42668,-2.04468 2.57789,-4.45095 3.45399,-7.21876 0.87602,-2.76782 1.31414,-5.41101 1.31414,-7.92947 0,-3.66548 -0.80083,-6.47043 -2.40273,-8.41538 -1.6019,-1.94495 -3.90482,-2.91776 -6.9084,-2.91776 z"
         style="color:#000000;clip-rule:nonzero;display:inline;overflow:visible;visibility:visible;opacity:0.99900004;isolation:auto;mix-blend-mode:normal;color-interpolation:sRGB;color-interpolation-filters:linearRGB;solid-color:#000000;solid-opacity:1;fill:url(#radialGradient4245);fill-opacity:1;fill-rule:nonzero;stroke:none;stroke-width:2.20000005;stroke-linecap:butt;stroke-linejoin:miter;stroke-miterlimit:4;stroke-dasharray:none;stroke-dashoffset:0;stroke-opacity:1;color-rendering:auto;image-rendering:auto;shape-rendering:auto;text-rendering:auto;enable-background:accumulate" />
      <g
         transform="scale(1.0001433,0.99985672)"
         style="font-style:normal;font-weight:normal;font-size:30.32019615px;line-height:125%;font-family:sans-serif;letter-spacing:0px;word-spacing:0px;fill:#1539a9;fill-opacity:1;stroke:none;stroke-width:1px;stroke-linecap:butt;stroke-linejoin:miter;stroke-opacity:1"
         id="text3385-6">
        <path
           d="m 59.782726,865.26975 6.913833,0 q 3.020176,0 4.604288,1.40645 1.584112,1.40646 1.584112,4.11573 0,3.64198 -2.339156,5.67024 -2.339156,2.02825 -6.573324,2.02825 l -3.760415,0 -1.732159,8.88287 -3.005371,0 4.308192,-22.10354 z m 2.516813,2.45759 -1.598917,8.30549 3.760415,0 q 2.546423,0 3.908463,-1.30282 1.36204,-1.30282 1.36204,-3.73081 0,-1.5545 -0.932701,-2.41318 -0.917897,-0.85868 -2.590837,-0.85868 l -3.908463,0 z"
           style="font-style:italic;fill:#1539a9;fill-opacity:1"
           id="path8511" />
        <path
           d="m 78.510776,864.33705 2.72408,0 -4.485849,23.03624 -2.72408,0 4.485849,-23.03624 z"
           style="font-style:italic;fill:#1539a9;fill-opacity:1"
           id="path8513" />
        <path
           d="m 97.653361,877.91303 -1.850598,9.46026 -2.72408,0 0.503362,-2.51681 q -1.199187,1.48048 -2.738884,2.22072 -1.524893,0.72543 -3.405101,0.72543 -2.117084,0 -3.479124,-1.28802 -1.347235,-1.30282 -1.347235,-3.33107 0,-2.90174 2.309546,-4.58949 2.324351,-1.68774 6.395667,-1.68774 l 3.790024,0 0.148048,-0.72544 q 0.02961,-0.11843 0.04441,-0.25168 0.0148,-0.14804 0.0148,-0.44414 0,-1.31763 -1.080749,-2.04306 -1.065945,-0.74024 -3.005371,-0.74024 -1.332431,0 -2.738885,0.34051 -1.39165,0.34051 -2.872128,1.02153 l 0.473753,-2.51681 q 1.539698,-0.57739 3.005371,-0.85868 1.480478,-0.2961 2.857323,-0.2961 2.931347,0 4.45624,1.27322 1.539697,1.27321 1.539697,3.70119 0,0.48856 -0.07402,1.15477 -0.07402,0.65142 -0.222072,1.39165 z m -2.946152,1.12517 -2.72408,0 q -3.345881,0 -4.959603,0.90309 -1.598916,0.88829 -1.598916,2.76849 0,1.30283 0.814263,2.04306 0.829068,0.74024 2.279937,0.74024 2.220717,0 3.878853,-1.58411 1.658135,-1.59891 2.191108,-4.26378 l 0.118438,-0.60699 z"
           style="font-style:italic;fill:#1539a9;fill-opacity:1"
           id="path8515" />
        <path
           d="m 107.48374,888.91299 q -1.89502,3.18303 -3.0942,3.96768 -1.18439,0.79946 -3.03498,0.79946 l -2.146698,0 0.458948,-2.27994 1.56931,0 q 1.13997,0 1.93942,-0.6218 0.79946,-0.6218 1.79138,-2.42798 l 0.84388,-1.58412 -3.67159,-15.97436 2.88693,0 2.75369,12.70251 7.60966,-12.70251 2.85732,0 -10.76307,18.12106 z"
           style="font-style:italic;fill:#1539a9;fill-opacity:1"
           id="path8517" />
        <path
           d="m 132.48901,877.60213 q 0.0444,-0.23687 0.0592,-0.48855 0.0296,-0.25169 0.0296,-0.50337 0,-1.80618 -1.06594,-2.85732 -1.05114,-1.05114 -2.87213,-1.05114 -2.02825,0 -3.58276,1.28802 -1.5545,1.27321 -2.35396,3.62717 l 9.78596,-0.0148 z m 2.36877,2.13189 -12.67289,0 q -0.0888,0.56258 -0.11844,0.88829 -0.0296,0.32571 -0.0296,0.56258 0,2.05787 1.2584,3.18303 1.27322,1.12516 3.58276,1.12516 1.77658,0 3.36069,-0.39973 1.58411,-0.39972 2.94615,-1.16957 l -0.51817,2.69447 q -1.46567,0.59219 -3.03498,0.88828 -1.5545,0.2961 -3.16822,0.2961 -3.44952,0 -5.31492,-1.64333 -1.8506,-1.65814 -1.8506,-4.69312 0,-2.59083 0.9179,-4.81155 0.9327,-2.23552 2.72408,-3.98249 1.15477,-1.09555 2.73888,-1.68774 1.59892,-0.5922 3.3903,-0.5922 2.81291,0 4.47104,1.68775 1.67295,1.68775 1.67295,4.53026 0,0.68102 -0.0888,1.46568 -0.0888,0.76985 -0.26649,1.65813 z"
           style="font-style:italic;fill:#1539a9;fill-opacity:1"
           id="path8519" />
        <path
           d="m 150.0771,873.30875 q -0.41453,-0.22207 -0.94751,-0.34051 -0.53297,-0.11844 -1.13996,-0.11844 -2.17631,0 -3.80483,1.65813 -1.62853,1.64334 -2.1615,4.41183 l -1.67294,8.45353 -2.72408,0 3.24225,-16.58136 2.72408,0 -0.51817,2.57604 q 1.08075,-1.43607 2.57603,-2.20592 1.51009,-0.76985 3.21264,-0.76985 0.44414,0 0.87348,0.0592 0.42934,0.0444 0.85868,0.16286 l -0.51817,2.69447 z"
           style="font-style:italic;fill:#1539a9;fill-opacity:1"
           id="path8521" />
        <path
           d="m 152.29781,865.26975 5.27051,0 0.68102,16.06319 6.94344,-16.06319 5.41855,0 0.72543,16.06319 6.70657,-16.06319 5.67023,0 -9.51947,22.10354 -6.45489,0 -0.74024,-16.80343 -7.15071,16.80343 -6.60293,0 -0.94751,-22.10354 z"
           style="font-style:italic;font-weight:bold;fill:#1539a9;fill-opacity:1"
           id="path8523" />
        <path
           d="m 199.62871,879.70441 -0.17766,0.84388 -12.4064,0 q 0,0.0888 -0.0148,0.26648 -0.0148,0.16285 -0.0148,0.25168 0,1.61372 0.96231,2.41318 0.97711,0.79946 2.91654,0.79946 1.67294,0 3.52354,-0.50336 1.8654,-0.50336 3.90846,-1.49528 l -0.81426,4.11573 q -1.93943,0.71062 -3.86405,1.05113 -1.90982,0.35532 -3.89366,0.35532 -3.87885,0 -5.99594,-1.79138 -2.10228,-1.79138 -2.10228,-5.06323 0,-1.89502 0.66622,-3.67159 0.68102,-1.79138 1.96904,-3.27186 1.52489,-1.77657 3.64197,-2.69447 2.13189,-0.9179 4.72273,-0.9179 3.36068,0 5.32972,1.79138 1.98384,1.79138 1.98384,4.82636 0,0.59219 -0.0888,1.25841 -0.074,0.65141 -0.25168,1.43606 z m -5.00402,-2.42798 q 0.0444,-0.19246 0.0592,-0.38493 0.0296,-0.20726 0.0296,-0.39972 0,-1.18439 -0.71063,-1.88021 -0.71063,-0.69583 -1.92462,-0.69583 -1.5545,0 -2.65005,0.85868 -1.08075,0.84387 -1.65814,2.50201 l 6.85461,0 z"
           style="font-style:italic;font-weight:bold;fill:#1539a9;fill-opacity:1"
           id="path8525" />
        <path
           d="m 213.41196,874.24145 q -2.04306,0 -3.34588,1.89501 -1.28802,1.88021 -1.28802,4.90038 0,1.36204 0.72544,2.1467 0.74024,0.76985 2.04306,0.76985 1.99864,0 3.30146,-1.8506 1.30282,-1.8654 1.30282,-4.76714 0,-1.51009 -0.71063,-2.29474 -0.69582,-0.79946 -2.02825,-0.79946 z m -5.5666,10.73347 -0.48856,2.39837 -5.31491,0 4.47104,-23.03624 5.32972,0 -1.73216,8.88287 q 1.21399,-1.45087 2.54643,-2.13189 1.33243,-0.69583 2.91654,-0.69583 2.7981,0 4.42663,1.77658 1.62852,1.77657 1.62852,4.84116 0,1.90982 -0.57738,3.716 -0.56258,1.80619 -1.62853,3.28667 -1.34723,1.8654 -3.04978,2.82771 -1.68775,0.96231 -3.62718,0.96231 -1.70255,0 -2.90173,-0.68102 -1.18439,-0.69583 -1.99865,-2.14669 z"
           style="font-style:italic;font-weight:bold;fill:#1539a9;fill-opacity:1"
           id="path8527" />
      </g>
      <g
         transform="scale(1.0001433,0.99985672)"
         style="font-style:normal;font-weight:normal;font-size:12.69235611px;line-height:125%;font-family:sans-serif;letter-spacing:0px;word-spacing:0px;fill:#1539a9;fill-opacity:1;stroke:none;stroke-width:1px;stroke-linecap:butt;stroke-linejoin:miter;stroke-opacity:1"
         id="text4289">
        <path
           d="m 87.199596,899.15634 3.036745,0 2.10713,4.95176 2.119524,-4.95176 3.030548,0 0,9.25278 -2.255868,0 0,-6.76761 -2.131919,4.98894 -1.512176,0 -2.131919,-4.98894 0,6.76761 -2.262065,0 0,-9.25278 z"
           style="font-style:normal;font-weight:bold;fill:#1539a9;fill-opacity:1"
           id="path8488" />
        <path
           d="m 99.842372,899.15634 2.386018,0 0,9.25278 -2.386018,0 0,-9.25278 z m 1.357238,-2.51616 1.75388,0 -1.76627,1.63613 -1.214701,0 1.227091,-1.63613 z"
           style="font-style:normal;font-weight:bold;fill:#1539a9;fill-opacity:1"
           id="path8490" />
        <path
           d="m 106.96323,900.9598 0,5.64586 0.85525,0 q 1.46259,0 2.23108,-0.7251 0.77468,-0.7251 0.77468,-2.10713 0,-1.37583 -0.76849,-2.09473 -0.76848,-0.7189 -2.23727,-0.7189 l -0.85525,0 z m -2.38601,-1.80346 2.51616,0 q 2.10713,0 3.1359,0.30368 1.03497,0.29747 1.77247,1.01638 0.65073,0.62594 0.9668,1.444 0.31607,0.81806 0.31607,1.85303 0,1.04737 -0.31607,1.87163 -0.31607,0.81806 -0.9668,1.444 -0.74369,0.71891 -1.78486,1.02258 -1.04117,0.29748 -3.12351,0.29748 l -2.51616,0 0,-9.25278 z"
           style="font-style:normal;font-weight:bold;fill:#1539a9;fill-opacity:1"
           id="path8492" />
        <path
           d="m 115.11286,899.15634 2.38602,0 0,9.25278 -2.38602,0 0,-9.25278 z"
           style="font-style:normal;font-weight:bold;fill:#1539a9;fill-opacity:1"
           id="path8494" />
        <path
           d="m 125.46259,906.72342 -3.73086,0 -0.58876,1.6857 -2.39841,0 3.42719,-9.25278 2.84462,0 3.42718,9.25278 -2.39841,0 -0.58255,-1.6857 z m -3.13591,-1.7167 2.53475,0 -1.26427,-3.68127 -1.27048,3.68127 z"
           style="font-style:normal;font-weight:bold;fill:#1539a9;fill-opacity:1"
           id="path8496" />
        <path
           d="m 134.07703,899.15634 2.38601,0 0,9.25278 -2.38601,0 0,-9.25278 z"
           style="font-style:normal;font-weight:bold;fill:#1539a9;fill-opacity:1"
           id="path8498" />
        <path
           d="m 138.81187,899.15634 2.6649,0 3.36521,6.34618 0,-6.34618 2.26206,0 0,9.25278 -2.66489,0 -3.36521,-6.34618 0,6.34618 -2.26207,0 0,-9.25278 z"
           style="font-style:normal;font-weight:bold;fill:#1539a9;fill-opacity:1"
           id="path8500" />
        <path
           d="m 151.83269,900.9598 0,5.64586 0.85525,0 q 1.46259,0 2.23108,-0.7251 0.77468,-0.7251 0.77468,-2.10713 0,-1.37583 -0.76849,-2.09473 -0.76848,-0.7189 -2.23727,-0.7189 l -0.85525,0 z m -2.38601,-1.80346 2.51616,0 q 2.10713,0 3.1359,0.30368 1.03497,0.29747 1.77247,1.01638 0.65073,0.62594 0.9668,1.444 0.31607,0.81806 0.31607,1.85303 0,1.04737 -0.31607,1.87163 -0.31607,0.81806 -0.9668,1.444 -0.74369,0.71891 -1.78486,1.02258 -1.04117,0.29748 -3.12351,0.29748 l -2.51616,0 0,-9.25278 z"
           style="font-style:normal;font-weight:bold;fill:#1539a9;fill-opacity:1"
           id="path8502" />
        <path
           d="m 164.20898,900.7181 q -1.09075,0 -1.6919,0.80566 -0.60115,0.80567 -0.60115,2.26827 0,1.45639 0.60115,2.26206 0.60115,0.80567 1.6919,0.80567 1.09695,0 1.6981,-0.80567 0.60115,-0.80567 0.60115,-2.26206 0,-1.4626 -0.60115,-2.26827 -0.60115,-0.80566 -1.6981,-0.80566 z m 0,-1.72909 q 2.23108,0 3.49536,1.27667 1.26427,1.27668 1.26427,3.52635 0,2.24347 -1.26427,3.52014 -1.26428,1.27667 -3.49536,1.27667 -2.22488,0 -3.49536,-1.27667 -1.26427,-1.27667 -1.26427,-3.52014 0,-2.24967 1.26427,-3.52635 1.27048,-1.27667 3.49536,-1.27667 z"
           style="font-style:normal;font-weight:bold;fill:#1539a9;fill-opacity:1"
           id="path8504" />
        <path
           d="m 174.99253,900.7181 q -1.09075,0 -1.6919,0.80566 -0.60116,0.80567 -0.60116,2.26827 0,1.45639 0.60116,2.26206 0.60115,0.80567 1.6919,0.80567 1.09694,0 1.69809,-0.80567 0.60116,-0.80567 0.60116,-2.26206 0,-1.4626 -0.60116,-2.26827 -0.60115,-0.80566 -1.69809,-0.80566 z m 0,-1.72909 q 2.23107,0 3.49535,1.27667 1.26428,1.27668 1.26428,3.52635 0,2.24347 -1.26428,3.52014 -1.26428,1.27667 -3.49535,1.27667 -2.22488,0 -3.49536,-1.27667 -1.26428,-1.27667 -1.26428,-3.52014 0,-2.24967 1.26428,-3.52635 1.27048,-1.27667 3.49536,-1.27667 z"
           style="font-style:normal;font-weight:bold;fill:#1539a9;fill-opacity:1"
           id="path8506" />
        <path
           d="m 184.93942,903.25905 q 0.74989,0 1.07216,-0.27889 0.32846,-0.27888 0.32846,-0.91722 0,-0.63214 -0.32846,-0.90483 -0.32227,-0.27268 -1.07216,-0.27268 l -1.00399,0 0,2.37362 1.00399,0 z m -1.00399,1.64852 0,3.50155 -2.38601,0 0,-9.25278 3.64409,0 q 1.82825,0 2.6773,0.61355 0.85524,0.61354 0.85524,1.9398 0,0.91722 -0.44621,1.50597 -0.44002,0.58876 -1.33245,0.86765 0.4896,0.11155 0.87384,0.50819 0.39044,0.39043 0.78707,1.1899 l 1.29527,2.62772 -2.54095,0 -1.12794,-2.29925 q -0.34086,-0.69411 -0.69411,-0.94821 -0.34706,-0.25409 -0.92962,-0.25409 l -0.67552,0 z"
           style="font-style:normal;font-weight:bold;fill:#1539a9;fill-opacity:1"
           id="path8508" />
      </g>
    </g>
  </g>
</svg>
