<?xml version="1.0" encoding="iso-8859-1"?>
<!-- Generator: Adobe Illustrator 19.0.0, SVG Export Plug-In . SVG Version: 6.00 Build 0)  -->
<svg version="1.1" id="Capa_1" xmlns="http://www.w3.org/2000/svg" xmlns:xlink="http://www.w3.org/1999/xlink" x="0px" y="0px"
	 viewBox="0 0 512 512" style="enable-background:new 0 0 512 512;" xml:space="preserve">
<g>
	<circle style="fill:#FF5364;" cx="256" cy="256" r="256"/>
	<path style="fill:#556080;" d="M317.793,503.172l0.265,1.236c-40.753,10.122-83.363,10.122-124.116,0l0.265-1.236l-17.655-114.759
		h158.897L317.793,503.172z"/>
	<path style="fill:#2C3E50;" d="M324.414,264.828c55.106-30.519,83.347-93.835,69.238-155.227
		C379.543,48.209,326.492,3.575,263.592,0.177C261.12,0.088,258.56,0,256,0c-2.56,0-5.12,0.088-7.592,0.177
		c-62.901,3.399-115.951,48.032-130.06,109.424s14.133,124.708,69.238,155.227"/>
	<path style="fill:#BDC3C7;" d="M150.069,264.828h211.862c9.751,0,17.655,7.904,17.655,17.655v88.276
		c0,9.751-7.905,17.655-17.655,17.655H150.069c-9.751,0-17.655-7.904-17.655-17.655v-88.276
		C132.414,272.732,140.318,264.828,150.069,264.828z"/>
	<g>
		<path style="fill:#35495E;" d="M238.345,308.966h-35.31c-4.875,0-8.828-3.952-8.828-8.828s3.952-8.828,8.828-8.828h35.31
			c4.875,0,8.828,3.952,8.828,8.828S243.22,308.966,238.345,308.966z"/>
		<path style="fill:#35495E;" d="M220.69,361.931c-2.341,0.001-4.587-0.929-6.243-2.585c-1.656-1.656-2.585-3.901-2.585-6.243
			v-52.966c0-4.875,3.952-8.828,8.828-8.828s8.828,3.952,8.828,8.828v52.966c0.001,2.341-0.929,4.587-2.585,6.243
			C225.277,361.002,223.031,361.932,220.69,361.931z"/>
		<path style="fill:#35495E;" d="M291.31,361.931c-3.799,0.002-7.172-2.43-8.371-6.034l-17.655-52.966
			c-1.007-2.993-0.337-6.296,1.755-8.661s5.289-3.432,8.382-2.797c3.093,0.635,5.612,2.874,6.604,5.871l9.284,27.845l9.285-27.845
			c0.992-2.998,3.511-5.237,6.604-5.871c3.093-0.635,6.29,0.432,8.382,2.797c2.092,2.365,2.762,5.668,1.755,8.661l-17.655,52.966
			C298.482,359.501,295.109,361.933,291.31,361.931z"/>
	</g>
</g>
<g>
</g>
<g>
</g>
<g>
</g>
<g>
</g>
<g>
</g>
<g>
</g>
<g>
</g>
<g>
</g>
<g>
</g>
<g>
</g>
<g>
</g>
<g>
</g>
<g>
</g>
<g>
</g>
<g>
</g>
</svg>
