<?xml version="1.0" encoding="iso-8859-1"?>
<!-- Generator: Adobe Illustrator 19.0.0, SVG Export Plug-In . SVG Version: 6.00 Build 0)  -->
<svg version="1.1" id="Capa_1" xmlns="http://www.w3.org/2000/svg" xmlns:xlink="http://www.w3.org/1999/xlink" x="0px" y="0px"
	 viewBox="0 0 511.953 511.953" style="enable-background:new 0 0 511.953 511.953;" xml:space="preserve">
<g>
	<path style="fill:#687492;" d="M59.485,21.203l0.554-0.346l0.554-0.277L92.903,1.9l2.214-1.245c4.052-1.303,8.48-0.638,11.97,1.799
		l332.316,191.862c12.646,9.009,20.25,23.498,20.48,39.023v240.778c0.619,6.019-1.699,11.968-6.227,15.983l-0.069,0.069l-1.73,0.969
		l-0.484,0.208l-32.311,18.75L59.485,21.203z"/>
	<path style="fill:#98A9D5;" d="M425.357,253.333v240.709c0.581,6.048-1.758,12.011-6.296,16.052l-0.761,0.484h-0.069l-0.484,0.277
		c-4.225,1.84-9.104,1.342-12.869-1.315L72.561,317.61c-12.638-9.047-20.237-23.551-20.48-39.092V37.809
		c-0.686-6.225,1.875-12.366,6.781-16.259l0.069-0.069l0.554-0.277c4.257-1.964,9.238-1.516,13.076,1.176l332.316,191.862
		C417.515,223.288,425.114,237.793,425.357,253.333z"/>
	<polygon style="fill:#BDDCF3;" points="399.6,462.167 77.836,276.394 77.836,54.954 399.6,240.727 	"/>
	<g>
		<path style="fill:#FFFFFF;" d="M251.59,402.314c-0.608,0.001-1.205-0.16-1.73-0.466l-25.743-14.858
			c-1.075-0.615-1.739-1.758-1.74-2.997c-0.001-1.239,0.66-2.383,1.734-3.001c1.074-0.617,2.396-0.613,3.465,0.011l25.743,14.858
			c1.354,0.783,2.014,2.378,1.609,3.889C254.524,401.262,253.155,402.313,251.59,402.314z"/>
		<path style="fill:#FFFFFF;" d="M103.577,132.324c-1.57,0.001-2.944-1.056-3.345-2.575s0.27-3.116,1.636-3.892l25.743-14.662
			c1.074-0.611,2.393-0.602,3.459,0.023c1.066,0.625,1.718,1.771,1.709,3.007c-0.008,1.236-0.675,2.373-1.749,2.984l-25.743,14.662
			C104.766,132.168,104.176,132.324,103.577,132.324z"/>
		<path style="fill:#FFFFFF;" d="M103.577,169.233c-1.57,0.001-2.944-1.056-3.345-2.575c-0.401-1.518,0.27-3.116,1.636-3.892
			l12.872-7.331c1.074-0.611,2.393-0.602,3.459,0.023c1.066,0.625,1.718,1.771,1.709,3.007c-0.008,1.236-0.675,2.373-1.749,2.984
			l-12.872,7.331C104.766,169.077,104.176,169.233,103.577,169.233z"/>
		<path style="fill:#FFFFFF;" d="M142.185,147.236c-1.57,0.001-2.944-1.056-3.345-2.575s0.27-3.116,1.636-3.892l19.311-10.997
			c1.075-0.616,2.396-0.61,3.465,0.015c1.069,0.625,1.722,1.774,1.713,3.013c-0.01,1.238-0.681,2.377-1.759,2.986l-19.311,10.997
			C143.374,147.08,142.784,147.236,142.185,147.236z"/>
		<path style="fill:#FFFFFF;" d="M103.577,206.138c-1.57,0.001-2.944-1.056-3.345-2.575c-0.401-1.518,0.27-3.116,1.636-3.892
			l57.919-32.993c1.075-0.616,2.396-0.61,3.465,0.015c1.069,0.625,1.722,1.774,1.713,3.013s-0.681,2.377-1.759,2.986l-57.919,32.993
			C104.766,205.982,104.176,206.138,103.577,206.138z"/>
		<path style="fill:#FFFFFF;" d="M187.232,158.483c-1.57,0.001-2.944-1.057-3.345-2.575c-0.401-1.518,0.27-3.116,1.636-3.892
			l6.439-3.669c1.074-0.611,2.393-0.602,3.459,0.023s1.718,1.771,1.709,3.007s-0.675,2.373-1.749,2.984l-6.439,3.669
			C188.421,158.327,187.832,158.483,187.232,158.483z"/>
	</g>
</g>
<g>
</g>
<g>
</g>
<g>
</g>
<g>
</g>
<g>
</g>
<g>
</g>
<g>
</g>
<g>
</g>
<g>
</g>
<g>
</g>
<g>
</g>
<g>
</g>
<g>
</g>
<g>
</g>
<g>
</g>
</svg>
