<?xml version="1.0" encoding="iso-8859-1"?>
<!-- Generator: Adobe Illustrator 19.0.0, SVG Export Plug-In . SVG Version: 6.00 Build 0)  -->
<svg version="1.1" id="Capa_1" xmlns="http://www.w3.org/2000/svg" xmlns:xlink="http://www.w3.org/1999/xlink" x="0px" y="0px"
	 viewBox="0 0 512.103 512.103" style="enable-background:new 0 0 512.103 512.103;" xml:space="preserve">
<g transform="translate(-1)">
	<g>
		<g>
			<path d="M264.963,0.201l-0.25-0.026c-0.239-0.009-0.5,0.009-0.74,0C261.671,0.114,259.381,0,257.064,0
				c-2.418,0-4.809,0.116-7.211,0.183c-0.201,0.007-0.388-0.007-0.589,0l-0.19,0.019C109.299,4.56-1.118,120.271,1.07,260.096
				s116.171,252.025,256.014,252.007S510.882,399.857,513.034,260.03C515.186,120.204,404.739,4.522,264.963,0.201z M249.878,17.249
				c0.541-0.016,1.083-0.029,1.626-0.041c3.538-0.099,7.167-0.099,10.556-0.015c0.7,0.015,1.4,0.032,2.099,0.054
				c67.845,3.75,120.93,59.871,120.905,127.82c-0.046,45.798-24.53,88.089-64.223,110.933H193.287
				c-49.115-28.22-73.838-85.369-60.773-140.487C145.578,60.395,193.321,20.422,249.878,17.249z M359.464,273.067
				c4.711,0.005,8.529,3.823,8.533,8.533v85.333c-0.005,4.711-3.822,8.529-8.533,8.533h-204.8c-4.711-0.005-8.529-3.822-8.533-8.533
				V281.6c0.005-4.711,3.823-8.529,8.533-8.533H359.464z M18.13,256C18.235,161.977,73.41,76.734,159.146,38.138
				c-30.807,28.154-47.979,68.225-47.118,109.95c0.861,41.725,19.671,81.053,51.613,107.913h-8.978
				c-14.132,0.015-25.585,11.468-25.6,25.6v85.333c0.015,14.132,11.468,25.585,25.6,25.6h18.28l14.142,91.924
				C86.767,453.589,18.263,360.961,18.13,256z M309.051,489.169c-34.232,7.685-69.743,7.685-103.975,0l-14.867-96.636h133.709
				L309.051,489.169z M495.532,270.946c-6.207,99.319-73.336,184.384-168.491,213.511l14.142-91.924h18.28
				c14.132-0.015,25.585-11.468,25.6-25.6V281.6c-0.015-14.132-11.468-25.585-25.6-25.6h-8.978
				c31.95-26.862,50.762-66.199,51.614-107.933c0.852-41.733-16.337-81.806-47.164-109.95
				C445.724,78.865,501.739,171.627,495.532,270.946z"/>
			<path d="M205.864,307.2h8.533v42.667c0,4.713,3.82,8.533,8.533,8.533s8.533-3.82,8.533-8.533V307.2h8.533
				c4.713,0,8.533-3.82,8.533-8.533s-3.82-8.533-8.533-8.533h-34.133c-4.713,0-8.533,3.82-8.533,8.533S201.151,307.2,205.864,307.2z
				"/>
			<path d="M283.105,352.567c1.16,3.483,4.42,5.833,8.092,5.833s6.931-2.35,8.092-5.833l17.067-51.2
				c1.491-4.47-0.923-9.302-5.392-10.796c-2.146-0.721-4.492-0.557-6.517,0.455c-2.025,1.013-3.564,2.791-4.275,4.94l-8.975,26.917
				l-8.975-26.917c-0.959-2.898-3.394-5.062-6.384-5.676s-6.08,0.418-8.103,2.704c-2.023,2.286-2.67,5.479-1.697,8.372
				L283.105,352.567z"/>
		</g>
	</g>
</g>
<g>
</g>
<g>
</g>
<g>
</g>
<g>
</g>
<g>
</g>
<g>
</g>
<g>
</g>
<g>
</g>
<g>
</g>
<g>
</g>
<g>
</g>
<g>
</g>
<g>
</g>
<g>
</g>
<g>
</g>
</svg>
