<svg height="512pt" viewBox="0 0 512.00003 512" width="512pt" xmlns="http://www.w3.org/2000/svg"><path d="m503.464844 469.332031v17.066407c-.027344 9.414062-7.652344 17.039062-17.066406 17.066406h-460.796876c-9.414062-.027344-17.039062-7.652344-17.066406-17.066406v-17.066407l42.664063-68.265625v-17.066406h409.601562v17.066406zm0 0" fill="#424242"/><path d="m477.867188 469.332031v17.066407c-.027344 9.414062-7.652344 17.039062-17.066407 17.066406h-435.199219c-9.414062-.027344-17.039062-7.652344-17.066406-17.066406v-17.066407l42.664063-68.265625v-17.066406h384v17.066406zm0 0" fill="#9e9e9e"/><path d="m179.199219 469.332031 14.710937-29.414062c1.445313-2.890625 4.398438-4.71875 7.628906-4.71875h108.921876c3.230468 0 6.183593 1.828125 7.628906 4.71875l14.710937 29.414062zm0 0" fill="#424242"/><path d="m503.464844 469.332031v17.066407c-.027344 9.414062-7.652344 17.039062-17.066406 17.066406h-460.796876c-9.414062-.027344-17.039062-7.652344-17.066406-17.066406v-17.066407zm0 0" fill="#424242"/><path d="m477.867188 469.332031v17.066407c-.027344 9.414062-7.652344 17.039062-17.066407 17.066406h-435.199219c-9.414062-.027344-17.039062-7.652344-17.066406-17.066406v-17.066407zm0 0" fill="#9e9e9e"/><path d="m51.199219 170.664062h409.601562v230.402344h-409.601562zm0 0" fill="#1566c0"/><path d="m51.199219 170.664062h384v230.402344h-384zm0 0" fill="#2296f3"/><path d="m460.730469 128h-366.566407l-.765624.167969 11.816406 51.03125h355.515625c4.714843 0 8.535156-3.820313 8.535156-8.535157v-34.132812c0-4.710938-3.820313-8.53125-8.535156-8.53125zm0 0" fill="#cfd8dc"/><path d="m477.867188 136.53125v34.132812c0 4.714844-3.820313 8.535157-8.535157 8.535157h-59.996093l51.394531-51.199219h8.535156c2.273437-.019531 4.460937.871094 6.078125 2.472656 1.613281 1.601563 2.523438 3.785156 2.523438 6.058594zm0 0" fill="#37474f"/><path d="m392.199219 128-51.402344 51.199219h-68.53125l51.402344-51.199219zm0 0" fill="#37474f"/><path d="m255.128906 128-51.394531 51.199219h-68.53125l51.394531-51.199219zm0 0" fill="#37474f"/><path d="m459.808594 16.082031c-.371094-2.269531-1.644532-4.292969-3.53125-5.609375-1.886719-1.316406-4.226563-1.816406-6.484375-1.386718l-8.910157 1.707031-64.1875 12.40625-67.25 12.714843-67.414062 12.800782-67.328125 12.800781-98.613281 17.953125 11.949218 51.371094.765626-.171875v-.167969l44.726562-7.679688 67.410156-12.800781 67.328125-12.714843 67.339844-12.714844 67.503906-12.800782 55.980469-10.820312c4.648438-1.027344 7.644531-5.558594 6.765625-10.238281zm0 0" fill="#cfd8dc"/><g fill="#37474f"><path d="m200.910156 109.652344.082032.339844-67.417969 12.800781-.085938-.597657 41.207031-60.585937v-.085937l67.328126-12.800782.085937.34375zm0 0"/><path d="m376.867188 23.96875-41.207032 60.507812v.085938l-67.339844 12.714844-.082031-.253906 41.292969-60.511719-.085938-.597657 67.25-12.714843zm0 0"/><path d="m469.128906 50.34375c.871094 4.679688-2.121094 9.207031-6.765625 10.242188l-59.199219 11.175781 41.125-60.421875 1.023438-1.375 7.679688-1.269532c2.261718-.433593 4.597656.066407 6.484374 1.386719 1.886719 1.316407 3.160157 3.339844 3.535157 5.609375zm0 0"/><path d="m119.464844 179.199219h-76.796875c-9.414063-.027344-17.039063-7.652344-17.066407-17.066407v-76.800781c.027344-9.414062 7.652344-17.039062 17.066407-17.066406h44.285156c4.03125-.011719 7.519531 2.800781 8.363281 6.742187l.425782 1.789063 11.949218 51.371094zm0 0"/></g><path d="m403.164062 71.761719-.082031.171875" fill="#35495e"/><path d="m221.867188 255.296875v69.667969c.023437 6.042968 3.367187 11.582031 8.699218 14.421875 5.332032 2.839843 11.796875 2.523437 16.824219-.828125l52.496094-34.832032c4.566406-3.015624 7.3125-8.125 7.3125-13.59375 0-5.472656-2.746094-10.578124-7.3125-13.59375l-52.496094-34.835937c-5.027344-3.347656-11.492187-3.667969-16.824219-.828125-5.332031 2.839844-8.675781 8.382812-8.699218 14.421875zm0 0" fill="#cfd8dc"/><path d="m469.332031 398.625v-210.894531c9.425781 0 17.066407-7.640625 17.066407-17.066407v-34.132812c0-9.425781-7.640626-17.066406-17.066407-17.066406h-271.195312l205.867187-39.101563c.636719-.042969 1.273438-.164062 1.882813-.355469l58.277343-11.09375c9.117188-2.019531 15.03125-10.863281 13.414063-20.0625l-6.078125-34.671874c-.824219-4.574219-3.449219-8.625-7.285156-11.246094-3.707032-2.550782-8.289063-3.492188-12.699219-2.609375l-350.574219 66.796875c-3.175781-4.597656-8.390625-7.355469-13.976562-7.390625h-44.296875c-14.140625 0-25.601563 11.460937-25.601563 25.601562v76.800781c0 14.136719 11.460938 25.597657 25.601563 25.597657v210.894531l-41.371094 66.183594c-.847656 1.355468-1.296875 2.921875-1.296875 4.523437v17.066407c0 14.136718 11.460938 25.601562 25.601562 25.601562h460.796876c14.140624 0 25.601562-11.464844 25.601562-25.601562v-17.066407c0-1.601562-.449219-3.167969-1.296875-4.523437zm0-227.960938h-39.132812l34.132812-34.132812h5zm-107.398437 0 34.132812-34.132812h44.132813l-34.132813 34.132812zm-68.265625 0 34.132812-34.132812h44.132813l-34.132813 34.132812zm-68.269531 0 34.132812-34.132812h44.136719l-34.132813 34.132812zm-68.265626 0 34.132813-34.132812h44.136719l-34.136719 34.132812zm-30.839843 0-7.917969-34.132812h48.800781l-34.132812 34.132812zm98.355469-109.710937-28.117188 41.445313-43.613281 8.285156 28.109375-41.429688zm67.300781-12.800781-28.160157 41.480468-43.601562 8.277344 28.15625-41.457031zm67.296875-12.800782-28.152344 41.488282-43.605469 8.285156 28.160157-41.488281zm67.300781-12.800781-28.160156 41.542969-43.605469 8.285156 28.160156-41.523437zm-297.300781 92.648438-15.199219 2.882812-8.003906-34.542969 51.304687-9.761718zm331.554687-62.996094-38.800781 7.367187 28.160156-41.550781 4.46875-.851562zm-426.667969 109.929687v-76.800781c0-4.714843 3.820313-8.535156 8.535157-8.535156l44.320312.144531 21.734375 93.722656h-66.054687c-4.714844 0-8.535157-3.820312-8.535157-8.53125zm85.332032 25.597657h332.800781v204.800781h-392.53125v-204.800781zm375.46875 298.667969c0 4.710937-3.820313 8.53125-8.535156 8.53125h-460.796876c-4.714843 0-8.535156-3.820313-8.535156-8.53125v-14.617188l38.871094-62.183594h400.125l38.871094 62.183594zm0 0"/><path d="m325.726562 436.101562c-2.871093-5.800781-8.792968-9.460937-15.265624-9.4375h-108.921876c-6.460937-.03125-12.378906 3.605469-15.265624 9.386719l-12.347657 24.746094h-122.726562c-4.710938 0-8.53125 3.820313-8.53125 8.535156 0 4.710938 3.820312 8.53125 8.53125 8.53125h418.132812c4.714844 0 8.535157-3.820312 8.535157-8.53125 0-4.714843-3.820313-8.535156-8.535157-8.535156h-131.257812zm-124.1875 7.628907h108.921876l8.53125 17.066406h-125.984376zm0 0"/><path d="m59.734375 102.398438c2.269531.023437 4.453125-.867188 6.058594-2.472657s2.496093-3.789062 2.472656-6.0625c-.015625-2.261719-.902344-4.429687-2.472656-6.058593-2.734375-2.710938-6.949219-3.253907-10.28125-1.328126-3.335938 1.929688-4.964844 5.851563-3.976563 9.578126.988282 3.722656 4.347656 6.320312 8.199219 6.34375zm0 0"/><path d="m59.734375 153.597656c2.269531.023438 4.453125-.867187 6.058594-2.472656s2.496093-3.789062 2.472656-6.058594c-.015625-2.265625-.902344-4.433594-2.472656-6.058594-2.734375-2.714843-6.949219-3.257812-10.28125-1.328124-3.335938 1.925781-4.964844 5.851562-3.976563 9.574218.988282 3.722656 4.347656 6.320313 8.199219 6.34375zm0 0"/><path d="m226.457031 346.859375c8.113281 4.375 17.976563 3.917969 25.652344-1.183594l52.53125-34.84375c6.945313-4.597656 11.125-12.375 11.125-20.703125 0-8.332031-4.179687-16.109375-11.125-20.707031l-52.496094-34.832031c-7.652343-5.105469-17.488281-5.585938-25.601562-1.257813s-13.191407 12.769531-13.210938 21.964844v69.667969c.003907 9.160156 5.046875 17.578125 13.125 21.894531zm3.941407-91.5625c-.007813-2.863281 1.582031-5.496094 4.125-6.824219 1.175781-.640625 2.488281-.984375 3.828124-1.007812 1.542969.007812 3.050782.480468 4.320313 1.355468l52.503906 34.835938c2.179688 1.4375 3.488281 3.875 3.488281 6.484375s-1.308593 5.046875-3.488281 6.484375l-52.503906 34.832031c-2.425781 1.660157-5.582031 1.804688-8.148437.375-2.542969-1.328125-4.132813-3.957031-4.125-6.824219zm0 0"/></svg>